<?xml version="1.0" encoding="utf-8"?>
<!DOCTYPE svg PUBLIC "-//W3C//DTD SVG 20010904//EN" "http://www.w3.org/TR/2001/REC-SVG-20010904/DTD/svg10.dtd">
<svg version="1.0" xmlns="http://www.w3.org/2000/svg" width="1500px" height="1895px" viewBox="0 0 1500 1895" preserveAspectRatio="xMidYMid meet">
 <g fill="#000000" stroke="#000000" stroke-width="1">
  <path d="M612.4 1853.9 c-4.8 -3.8 -8.1 -5.3 -11.6 -5 -1.4 0.1 -2.9 -0.2 -3.3 -0.8 -1.4 -2.3 -16.9 -0.6 -19 2.1 -1.4 1.8 -7.2 2 -10.5 0.3 -1.7 -0.9 -3 -2.5 -3.3 -4.3 -0.4 -2.1 -1.3 -3.1 -3.1 -3.4 -1.5 -0.3 -2.7 0 -3 0.8 -0.5 1.4 -3.3 1 -8.2 -1.2 -1.7 -0.7 -4.8 -1.5 -6.8 -1.8 -2.1 -0.3 -4.3 -0.9 -5 -1.5 -0.7 -0.6 -1.7 -0.6 -2.5 -0.1 -1.7 1 -3.7 0.3 -7 -2.2 -1.3 -1 -3 -1.8 -3.8 -1.8 -0.7 0 -3 -1.5 -4.9 -3.2 -4.8 -4.4 -9.5 -6.6 -13 -6.1 -4.5 0.5 -6.3 -1.6 -6.8 -8.1 -0.3 -3.1 -0.8 -6.5 -1.1 -7.7 -0.4 -1.1 -0.2 -2.5 0.3 -3.2 1.6 -2.1 2.3 -9.5 0.9 -10 -0.6 -0.3 -0.2 -0.6 1 -0.6 1.2 -0.1 2.5 -0.5 2.8 -1.1 0.3 -0.5 2.2 -1 4.1 -1 1.9 0 3.4 0.5 3.4 1 0 2.3 2.8 0.8 4.5 -2.4 1.1 -1.9 2.4 -3.4 2.9 -3.3 0.6 0.1 1.2 -0.7 1.4 -1.8 0.4 -2.9 -5 -6 -7.8 -4.5 -1.3 0.7 -2 0.7 -2 0 0 -0.5 -1.3 -1 -2.9 -1 -3.1 0 -8.1 -3.4 -8.1 -5.5 0 -0.7 -0.6 -1.8 -1.4 -2.5 -0.8 -0.6 -1.6 -2.3 -1.8 -3.7 -0.2 -2 -1.3 -2.9 -4.7 -4.2 -3.3 -1.2 -4.8 -2.5 -6.4 -5.6 -1.1 -2.2 -2.4 -4.7 -2.8 -5.5 -0.5 -0.8 -1.8 -3.4 -2.9 -5.7 -1.2 -2.4 -2.6 -4.3 -3 -4.3 -1.1 0 -6 -5.2 -6 -6.3 0 -0.5 -3.2 -4.1 -7.1 -8 -6.9 -7 -12 -15.1 -19.1 -29.9 -0.4 -1 -0.6 -5.1 -0.4 -9.2 0.5 -7.1 0.3 -7.5 -2 -9.1 -1.4 -0.9 -3.8 -3.8 -5.5 -6.5 -1.6 -2.6 -3.6 -5.1 -4.4 -5.4 -0.8 -0.3 -1.5 -1.2 -1.5 -2.1 0 -0.8 -0.4 -1.5 -1 -1.5 -0.5 0 -2.2 -1.8 -3.6 -4 -1.5 -2.2 -3.3 -4 -4.1 -4 -0.8 0 -1.2 -0.3 -1 -0.7 0.3 -0.5 0.1 -3 -0.3 -5.6 -0.4 -3.2 -0.3 -6 0.5 -8 3.4 -8.8 4 -9.7 7.2 -10.8 1.8 -0.6 3.3 -1.7 3.3 -2.5 0 -2.1 3.5 -1.7 8.8 1.1 2.6 1.4 5.2 2.5 5.8 2.5 0.6 0 1.7 0.6 2.3 1.4 0.7 0.8 2.2 1.7 3.4 2 1.3 0.3 4.1 1.3 6.3 2.3 2.1 0.9 4.6 1.6 5.5 1.4 0.9 -0.1 2.1 0.5 2.8 1.3 0.9 1.1 1.8 1.2 4.2 0.2 2.9 -1 3.3 -0.9 5.8 2.2 2.8 3.2 7.3 4.4 8.6 2.2 1.7 -2.7 9.5 2.8 9.5 6.7 0 1.6 0.7 2.4 2.4 2.9 1.3 0.3 2.6 1.4 2.9 2.5 0.3 1.2 1.4 1.9 3 1.9 2.3 0 7.8 4.1 8.8 6.5 0.5 1.2 7.1 6.3 8 6.1 0.3 -0.1 1.2 0.4 2 1.1 0.8 0.6 3.8 1.1 6.9 0.9 4.5 -0.2 6.1 0.2 8.7 2.2 1.8 1.3 5.1 2.6 7.4 2.9 2.6 0.4 4.3 1.2 4.6 2.2 0.5 1.8 8.3 4.6 15.3 5.6 4.4 0.6 15.7 -0.6 19.4 -2.1 1.5 -0.6 1.8 -0.4 1.3 0.9 -0.5 1.2 0.5 1.8 4.4 2.6 2.8 0.6 5.5 0.9 6 0.5 0.5 -0.3 3.8 -0.6 7.3 -0.8 6.6 -0.2 10.6 -2.2 10.6 -5.2 0 -1.9 2.9 -0.6 6.4 2.8 1.7 1.5 3.9 2.8 5 2.9 18.3 0.8 20.5 0.7 22.2 -1.2 1.2 -1.3 3 -1.9 6.1 -1.9 2.3 0 4.3 0.4 4.3 0.9 0 0.4 2.5 0.3 5.5 -0.4 6.8 -1.6 6.1 -1.5 8.6 -1.5 1.1 0 1.7 -0.4 1.4 -1 -1.1 -1.7 1.9 -1.1 4.5 1 1.4 1.1 3 2 3.5 2 0.6 0 2.1 0.7 3.4 1.6 2.5 1.8 8.8 2.1 18.1 0.9 5.8 -0.8 8 -1.9 8 -4.1 0 -0.8 0.7 -1.4 1.5 -1.4 0.8 0 1.5 -0.6 1.5 -1.4 0 -1.1 1.3 -1.3 5.5 -1 3.1 0.2 6.4 0.8 7.5 1.4 1.6 0.8 2.1 0.6 3.1 -1.2 0.7 -1.3 1.2 -2.4 1.1 -2.5 -1.4 -2 1.2 -2.3 14.8 -1.7 9.7 0.4 15.4 0.3 16.2 -0.3 0.8 -0.6 3.4 -0.8 6.5 -0.4 4.2 0.6 6.3 0.3 10.5 -1.5 2.9 -1.2 6.5 -3.3 8 -4.6 2.6 -2.4 2.8 -2.5 10.7 -1.3 4.5 0.6 8.1 0.9 8.2 0.6 0 -0.3 0.4 0.4 0.9 1.5 0.6 1.6 2.1 2.3 5.4 2.8 3.7 0.6 6.4 0.1 13.8 -2.4 5.1 -1.7 10.1 -3.6 11 -4.1 1 -0.5 2.7 -0.9 3.8 -0.9 1.1 0 2 -0.6 2.1 -1.2 0 -0.7 1.4 -2.4 3 -3.7 2.6 -2 3.5 -2.2 6.7 -1.4 2.1 0.6 4.7 0.6 5.7 0.2 1.1 -0.4 4.6 -0.8 7.8 -0.8 3.7 -0.1 7.2 -0.8 9.7 -2.1 2.2 -1.1 5.3 -2 6.9 -2 1.6 0 3.1 -0.4 3.3 -0.8 0.2 -0.5 3.4 -1.9 7.2 -3.1 6.8 -2.2 9.6 -4 9.6 -6 0 -0.6 0.8 -1.1 1.8 -1.1 3.3 0 16.7 -5.7 17 -7.3 0.3 -1.4 3.2 -2.3 10.2 -3 5.4 -0.6 10.6 -2 12 -3.3 2.3 -1.9 10.2 -5.4 12.6 -5.4 1.1 0 3.8 -1.3 6 -3 2.1 -1.6 4.4 -3 5.1 -3 0.6 0 2.6 -1.2 4.3 -2.7 1.8 -1.4 4.3 -2.8 5.6 -2.9 3.5 -0.4 15.4 -6.5 15.4 -7.9 0 -0.6 0.6 -1.2 1.3 -1.3 6.3 -0.4 9.5 -1.9 13.6 -5.9 2.4 -2.3 4.9 -4.3 5.5 -4.3 0.7 0 2.2 -0.8 3.5 -1.7 1.2 -1 3.5 -2.7 4.9 -3.8 1.5 -1.2 4.6 -3 6.9 -4 2.4 -1.1 4.3 -2.3 4.3 -2.7 0 -0.5 0.7 -0.8 1.6 -0.8 0.9 0 3.5 -2 5.8 -4.5 2.4 -2.5 5 -4.5 5.8 -4.5 1.6 0 6.8 -4.7 6.8 -6.1 0 -0.5 1.1 -0.9 2.4 -0.9 1.4 0 3.1 -0.6 3.8 -1.3 0.7 -0.7 3.6 -2.1 6.3 -3.1 9.8 -3.5 13 -5.6 16.4 -10.6 1.8 -2.7 4 -5.1 4.7 -5.4 2.6 -1 10.3 -7.1 10.4 -8.1 0 -0.6 2.4 -2.4 5.3 -4.1 3.6 -2.1 5.7 -4.1 7 -6.7 0.9 -2 2.4 -3.7 3.2 -3.7 0.8 0 1.5 -0.4 1.5 -0.9 0 -1 8.8 -4.1 11.6 -4.1 2.1 0 5.6 -3.8 7.3 -7.7 0.7 -1.8 3.6 -4.7 6.7 -6.8 3 -2.1 5.4 -4.2 5.4 -4.7 0 -1.8 12.1 -12.8 14.2 -12.8 3.2 0 8.8 -3.9 8.8 -6.1 0 -2.7 2.6 -7.5 4.4 -8.2 0.9 -0.4 2.5 -2.6 3.6 -5 1.4 -3 3.7 -5.6 7 -7.8 2.6 -1.8 6.1 -5.3 7.6 -7.8 1.5 -2.5 4.9 -6.3 7.5 -8.3 3.8 -3 4.6 -4.1 4.2 -6.1 -0.3 -1.4 0.2 -3.6 1.1 -4.9 0.9 -1.4 1.3 -2.8 0.9 -3.1 -0.3 -0.4 0.1 -0.7 1 -0.7 1 0 1.7 -0.5 1.7 -1 0 -0.6 1 -1.5 2.3 -2.1 5.5 -2.5 13.2 -9.3 12.2 -10.9 -1 -1.7 2.8 -8.4 7.1 -12.3 2.4 -2.2 4.4 -4.6 4.4 -5.4 0 -1.9 3 -6.3 4.4 -6.3 2.6 -0.1 11.5 -11 13.1 -16.1 0.4 -1.3 1.7 -3.7 2.7 -5.2 1.1 -1.6 1.8 -3.1 1.4 -3.4 -0.8 -0.8 1.4 -4.5 4 -6.5 3.5 -2.8 6.7 -10.2 5.9 -13.8 -0.5 -2.5 -0.1 -3.5 2.3 -6 1.7 -1.6 4.2 -3.4 5.6 -4 2.8 -1 4.9 -5 4 -7.4 -0.9 -2.4 3.8 -11.5 7 -13.4 3.9 -2.3 5.3 -5.2 6.1 -12.4 0.4 -3.8 1.1 -5.8 2 -5.8 1.9 0 2.9 -4.5 3 -14.5 0 -6.8 0.4 -8.9 1.3 -8.7 1.5 0.3 5.1 -3.6 5.2 -5.5 0 -0.7 -0.6 -1.3 -1.2 -1.3 -0.8 0 -0.4 -0.8 0.7 -1.6 1.4 -1.2 1.6 -1.8 0.7 -2.1 -4.3 -1.6 -5.4 -5.9 -2.2 -8.8 1.1 -1 2 -3.1 2.1 -4.9 0.1 -6.7 2.6 -17.7 4.4 -19 1.4 -1 1.7 -2.6 1.6 -9.2 -0.1 -5.7 0.3 -8.5 1.3 -9.9 2 -2.6 2 -8.1 0.1 -8.9 -0.9 -0.3 -1.5 -1.8 -1.5 -3.6 0 -2 -0.5 -3 -1.5 -3 -1.2 0 -1.3 -0.4 -0.7 -1.7 1.7 -3.2 2.5 -10.3 1.2 -10.3 -0.8 0 -1.1 -2 -0.8 -6.5 0.2 -4.2 -0.1 -6.8 -0.9 -7.3 -1.2 -0.8 -2.9 -9.4 -2.5 -12.6 0.1 -1.1 1 -2.8 1.9 -3.8 1.2 -1.4 1.7 -4.3 2 -11.4 0.3 -8.9 0.1 -9.8 -2.2 -12.8 -1.4 -1.8 -2.5 -4.3 -2.5 -5.4 0 -1.2 -0.4 -2.2 -1 -2.2 -0.5 0 -1 -0.7 -1 -1.6 0 -0.9 -1.3 -3.3 -3 -5.4 -1.6 -2.1 -3 -4.3 -3 -4.9 0 -0.5 -0.6 -2.5 -1.4 -4.3 -0.8 -1.8 -2.1 -4.8 -2.8 -6.5 -0.7 -1.8 -1.6 -3.3 -2 -3.3 -0.5 0 -0.8 -0.9 -0.8 -2 0 -2.2 -3.6 -9.9 -8.6 -18.5 -2 -3.3 -3.8 -7.6 -4.2 -9.5 -0.8 -5.3 -3.4 -8.8 -12.3 -17 -4.5 -4.1 -8.8 -9 -9.5 -10.7 -0.8 -1.8 -1.9 -3.3 -2.4 -3.3 -0.6 0 -1 -0.7 -1 -1.6 0 -0.9 -0.5 -1.2 -1.1 -0.8 -0.7 0.4 -1 0.1 -0.7 -0.7 0.5 -1.4 -3 -5.2 -13.8 -14.9 -3.3 -3 -6.3 -6.3 -6.7 -7.2 -0.3 -1 -1.7 -1.8 -2.9 -1.8 -1.6 0 -2.7 -0.9 -3.5 -2.8 -1.5 -3.3 -6.2 -8.4 -7.2 -7.8 -0.6 0.4 -5.7 -3.1 -10.8 -7.4 -0.7 -0.5 -2.1 -1 -3.3 -1 -1.1 0 -2 -0.4 -2 -0.9 0 -0.5 -1.3 -1.4 -2.9 -2.1 -1.6 -0.6 -3.2 -1.8 -3.5 -2.6 -0.3 -0.8 -1.8 -1.4 -3.4 -1.4 -1.6 0 -3.2 -0.3 -3.6 -0.7 -0.4 -0.5 -1.1 -0.8 -1.6 -0.8 -0.4 0 -2.6 -2.1 -4.9 -4.6 -3.3 -3.8 -5.1 -4.9 -9.3 -5.9 -6.6 -1.4 -20.1 -6 -20.8 -7 -0.3 -0.4 -2 -1.5 -3.8 -2.4 -1.8 -0.9 -3.6 -2.4 -3.9 -3.2 -0.3 -0.7 -1.1 -1.4 -1.9 -1.4 -0.8 0 -3.1 -0.9 -5.1 -2 -2.1 -1.1 -5.3 -2 -7.1 -2 -1.9 0 -4.2 -0.8 -5.4 -1.9 -1.1 -1.1 -4.3 -2.5 -7 -3 -2.7 -0.6 -5.9 -1.7 -7.1 -2.5 -3 -1.9 -12.9 -2.8 -16.3 -1.6 -1.8 0.7 -3 0.7 -3.9 0 -0.8 -0.6 -2.4 -1.3 -3.7 -1.4 -3.6 -0.5 -8.2 -1.8 -9.3 -2.7 -0.6 -0.4 -3.1 -1 -5.6 -1.2 -2.5 -0.2 -5 -0.6 -5.5 -0.9 -0.5 -0.3 -2 -0.4 -3.4 -0.3 -1.4 0.1 -4.5 -0.4 -7 -1.2 -3.7 -1.2 -18 -2.4 -28.9 -2.3 -1.3 0 -3 -0.5 -3.7 -1.1 -0.8 -0.6 -2.4 -0.9 -3.6 -0.6 -1.3 0.3 -3.2 -0.1 -4.2 -0.8 -1 -0.8 -2.3 -1.2 -2.8 -0.9 -1.3 0.8 -11.1 1.5 -18.8 1.4 -38.9 -0.7 -45.6 -0.6 -49 0.8 -2.6 1.1 -5.8 1.2 -13.5 0.7 -12 -0.8 -13.7 -0.8 -23.9 0.4 -4.4 0.6 -8.3 0.8 -8.8 0.5 -0.4 -0.3 -1.8 0.1 -3 0.8 -1.3 0.7 -3.4 1.3 -4.8 1.5 -4.8 0.4 -23.6 0.6 -40.5 0.3 -9.3 -0.1 -18.6 0 -20.5 0.4 -1.9 0.4 -7.3 0.7 -12 0.8 -4.7 0 -9.3 0.4 -10.2 0.9 -0.9 0.5 -1.9 0.5 -2.2 0.1 -0.3 -0.5 -1.8 -0.7 -3.4 -0.4 -1.6 0.2 -3.3 -0.1 -3.6 -0.7 -1 -1.5 -6.8 -1.4 -9.1 0.3 -3.6 2.5 -8.4 3 -10.5 1.1 -1.6 -1.5 -3.1 -1.6 -9.4 -1 -4.9 0.4 -7.6 0.3 -8.1 -0.4 -0.8 -1.4 -5.2 -1.4 -6 -0.1 -0.3 0.6 -1.6 1 -2.9 1 -1.2 0 -2.5 0.3 -2.8 0.6 -0.8 0.7 -24.6 1.6 -41 1.5 -7 0 -13 0.4 -13.3 0.8 -0.5 0.9 -1.8 0.9 -9.1 -0.4 -2.7 -0.5 -4.4 -0.3 -4.8 0.4 -0.4 0.6 -1.2 0.8 -1.8 0.5 -0.6 -0.4 -3.3 -0.6 -6 -0.5 -3 0.1 -5.7 -0.5 -7.3 -1.5 -2.1 -1.4 -4.9 -1.7 -10.7 -1.2 -0.7 0 -4.7 -0.6 -8.8 -1.5 -9.5 -1.9 -20.3 -2.2 -22.8 -0.6 -1.6 1 -3.5 0.9 -9.6 -0.4 -5.3 -1.2 -8.3 -1.4 -10 -0.7 -1.4 0.5 -6.1 0.7 -10.3 0.4 -15.2 -1.1 -30 -1.2 -43.3 -0.4 -8.3 0.5 -13.9 0.5 -14.5 -0.1 -1.9 -1.8 -5.4 -0.9 -7.6 2.1 -1.2 1.6 -3.6 3.2 -5.2 3.6 -1.7 0.3 -5.1 1.7 -7.6 3 -5.1 2.8 -8.1 2.2 -12 -2.2 -2.2 -2.5 -5 -3.1 -6.8 -1.3 -0.7 0.7 -2.5 -0.1 -6.1 -2.7 -4.2 -3.2 -5.5 -4.9 -7.8 -10.8 -1.5 -3.9 -3.3 -7.7 -3.8 -8.5 -1.3 -1.7 -3.4 -25.8 -2.4 -27.4 0.4 -0.7 0.8 -3.7 0.8 -6.7 0 -3 0.6 -6.7 1.4 -8.2 0.8 -1.5 1.7 -4 2.1 -5.6 0.4 -2.1 1.4 -3.2 3 -3.6 2.9 -0.7 4.9 -4 4.2 -6.8 -0.3 -1.1 -0.1 -3.2 0.4 -4.7 0.6 -1.4 1.5 -8 2 -14.6 0.7 -8.8 1.5 -12.7 2.9 -15.1 1.1 -1.7 2 -4 2 -5.1 0 -1.1 1.4 -3.7 3 -5.8 1.7 -2.1 3 -4.6 3 -5.7 0 -5.2 5.2 -9.8 9.3 -8.2 2 0.7 3.1 -2.7 2.2 -6.7 -0.6 -2.4 -0.2 -3.6 1.6 -5.5 1.3 -1.4 3.7 -5.3 5.4 -8.7 2.6 -5.3 3.5 -6.3 6.7 -7.2 2 -0.5 4 -1.3 4.4 -1.7 0.4 -0.5 1.9 -0.8 3.3 -0.8 3.1 0 13.8 -9.7 16.5 -14.8 0.9 -1.7 2 -3.2 2.4 -3.2 0.5 0 1.6 -1.6 2.5 -3.5 0.9 -2 2.7 -3.9 4 -4.4 2.3 -0.9 10.7 -9.4 10.7 -10.9 0 -0.5 1.1 -1.5 2.5 -2.2 1.4 -0.7 3.5 -3 4.7 -4.9 3.7 -6 6.7 -11.5 7.4 -13.3 0.3 -1 1 -1.8 1.5 -1.8 0.5 0 0.9 -0.9 0.9 -2 0 -1.3 1 -2.4 2.5 -3 1.4 -0.5 3.4 -2.3 4.3 -4 1.2 -2.2 2.4 -3 4.5 -3 1.5 0 2.7 -0.4 2.7 -0.9 0 -0.5 0.8 -1.1 1.8 -1.3 1.5 -0.4 1.9 -1.5 1.9 -5.1 0.1 -6 1.1 -8.7 3.1 -8.7 0.9 0 2.4 -0.6 3.2 -1.3 1.8 -1.4 6 -8.3 6 -9.8 0 -1.6 4.3 -6.9 5.5 -6.9 1.1 0 1.8 -1.2 4.7 -7.6 0.6 -1.2 2.1 -2.7 3.3 -3.4 3.1 -1.7 8.6 -9.4 9 -12.6 0.1 -1.4 1.6 -4 3.3 -5.7 2.4 -2.6 2.8 -3.6 2.1 -5.4 -1 -2.8 -5.2 -3.9 -8.5 -2.4 -1.4 0.6 -3.9 1.1 -5.7 1.1 -1.8 0 -5.1 0.9 -7.5 2 -2.7 1.2 -6.2 1.9 -9.5 1.8 -3.2 -0.1 -6.6 0.5 -8.7 1.5 -2.4 1.2 -4.7 1.6 -7.9 1.1 -4.2 -0.5 -4.9 -0.3 -7.5 2.5 -3.4 3.5 -4.1 3.7 -6.2 1.6 -1.8 -1.7 -6.2 -1.1 -8 1.1 -0.6 0.8 -1.7 1.4 -2.5 1.4 -0.8 0 -2.3 0.7 -3.3 1.5 -1.1 0.8 -2.6 1.5 -3.4 1.5 -0.8 0 -2.3 1.1 -3.4 2.5 -1.2 1.6 -3 2.5 -4.7 2.5 -6.1 0 -12.5 3.1 -17.8 8.6 -5 5.3 -5.2 5.4 -10.8 5.4 -5.9 0 -8.3 1.5 -12.4 7.7 -1 1.5 -2.9 2.2 -7.2 2.7 -3.3 0.4 -5.9 1.1 -5.9 1.6 0 0.5 -1.3 0.7 -2.8 0.4 -2.2 -0.5 -3.5 0.1 -6.1 2.5 -2 1.9 -4.4 3.1 -6 3.1 -1.5 0 -3.5 0.6 -4.6 1.4 -1.1 0.7 -3.8 1.4 -6 1.4 -6 0.2 -10.4 1.8 -12.6 4.6 -1.1 1.5 -2.7 2.6 -3.6 2.6 -0.8 0 -2.6 0.9 -4 2 -1.6 1.3 -4.1 2 -6.7 2 -5.6 0 -10.6 2 -15 5.8 -2 1.7 -4.5 3.2 -5.5 3.2 -2.5 0 -12.1 4.1 -12.1 5.1 0 0.5 -0.7 0.9 -1.5 0.9 -0.8 0 -1.5 0.5 -1.5 1 0 0.6 -0.9 1 -2 1 -1.1 0 -2.5 0.9 -3.2 2 -0.7 1.1 -1.8 2 -2.5 2 -0.6 0 -2.5 1.1 -4.1 2.5 -1.7 1.4 -3.7 2.5 -4.6 2.5 -1.8 0 -9.5 3.8 -11.4 5.6 -0.8 0.8 -2.2 1 -4 0.5 -4.1 -1.2 -8 2.2 -8.4 7.3 -0.3 3.5 -0.7 4.1 -3.5 4.8 -1.8 0.5 -4.1 2.2 -5.3 3.8 -1.2 1.7 -2.5 3 -3 3 -0.5 0 -2.2 -1.4 -3.8 -3 -3.7 -3.6 -5.4 -3.8 -7.1 -0.6 -0.7 1.3 -2.3 2.8 -3.6 3.4 -1.8 0.8 -2.5 0.6 -3.9 -0.9 -1.7 -2.1 -3.6 -1.8 -3.6 0.6 0 0.7 -0.6 1.5 -1.4 1.8 -0.8 0.3 -1.6 1.8 -1.8 3.4 -0.2 1.5 -0.7 2.8 -1.3 2.8 -0.5 0 -1.6 0.4 -2.3 0.9 -0.8 0.4 -2.3 0.1 -3.7 -0.8 -1.5 -1 -2.6 -1.2 -3 -0.6 -0.3 0.6 -3.5 1 -7.1 1 -4.6 0 -6.6 0.4 -7 1.4 -0.3 0.8 -1.9 2 -3.5 2.6 -2.7 1.1 -3.2 1 -5.4 -1 -2.5 -2.4 -2.5 -2.4 -4.6 -0.1 -2.4 2.6 -4.4 1.6 -5.4 -2.8 -0.8 -3.8 -7 -6.2 -8.9 -3.5 -1.2 1.6 -1.6 1.6 -5.9 -1.2 -3.1 -2 -4.7 -3.7 -4.9 -5.4 -0.2 -1.4 -0.8 -2.5 -1.5 -2.5 -1.9 0 -2.6 -1.3 -2.5 -5 0.1 -3.2 -2.7 -7.5 -4.8 -7.5 -0.4 0 -2.1 -1.7 -3.8 -3.9 -2.1 -2.7 -3.3 -5.4 -3.8 -8.9 -0.6 -4.9 -0.5 -5.1 2 -5.8 3.4 -0.8 4.7 -3.3 3.7 -7 -0.5 -2 -0.3 -3.6 0.7 -5.2 1.1 -1.7 1.3 -4.1 0.9 -9.5 -0.4 -5.3 -0.1 -7.7 0.9 -9.1 1.2 -1.7 1 -2.3 -1.6 -5.5 -4.1 -4.8 -4.1 -9.9 -0.1 -14 1.7 -1.8 3.1 -4.4 3.5 -7 0.5 -3.5 1 -4.1 2.5 -3.6 2.4 0.7 3.4 -0.8 5 -7.2 2.2 -8.9 0.8 -16.3 -2.9 -16.3 -1.2 0 -2 -0.7 -2 -1.6 0 -2.6 2 -5.4 3.9 -5.4 1 0 2.5 -0.9 3.2 -2 1.3 -1.9 1.6 -1.9 4.2 -0.5 2.6 1.3 2.8 1.3 3.7 -0.8 0.4 -1.2 2.2 -3.3 3.9 -4.7 2.3 -1.8 3.1 -3.3 3.1 -5.6 0 -4.8 2.7 -6.6 9.7 -6.2 7.1 0.3 8.3 -0.4 8.3 -4.6 0 -2.4 0.7 -3.8 3 -5.4 1.6 -1.2 3.3 -2.2 3.9 -2.2 0.5 0 1.1 -0.7 1.4 -1.4 0.3 -0.8 2.1 -1.8 3.9 -2.1 1.8 -0.4 4.2 -1.4 5.3 -2.3 2.9 -2.5 8.1 -9.4 8.9 -11.8 0.3 -1.1 2 -3 3.6 -4.2 1.7 -1.3 3 -2.9 3 -3.7 0 -0.8 0.7 -1.5 1.5 -1.5 0.9 0 1.8 -0.7 2.1 -1.5 0.4 -0.8 1.7 -1.5 3 -1.5 1.3 0 2.4 -0.4 2.4 -1 0 -0.5 1.5 -2.4 3.3 -4.3 1.7 -1.9 4.3 -4.7 5.7 -6.3 1.4 -1.6 4.7 -4.7 7.3 -6.9 2.6 -2.2 4.7 -4.5 4.7 -5.1 0 -0.7 1.3 -1.7 2.9 -2.2 1.6 -0.6 3.4 -2 4 -3.1 0.6 -1.1 2.3 -2.6 3.8 -3.3 1.5 -0.7 2.9 -2.2 3.1 -3.3 0.6 -3.1 2.3 -4.6 4.4 -3.9 1 0.3 2.5 0 3.3 -0.6 1.9 -1.6 5.4 0.4 9.9 5.8 2.9 3.6 3.6 5.2 3.6 8.8 0 3.8 -0.3 4.4 -2.4 5 -3.2 0.8 -5.1 3 -6.6 7.9 -0.7 2.2 -2.1 5.1 -3.1 6.4 -1.1 1.3 -1.9 3.4 -1.9 4.6 0 1.2 -0.8 3 -1.9 3.9 -1 0.9 -2.1 3.5 -2.5 5.6 -0.3 2.2 -1.1 4 -1.7 4 -1.4 0 -3.9 2.6 -3.9 4.1 0 1.5 -6.5 7.9 -8 7.9 -0.6 0 -1.6 1.2 -2.3 2.8 -0.6 1.5 -1.7 3.3 -2.4 4 -0.7 0.7 -1.3 2.1 -1.3 3.1 0 0.9 -0.4 2.1 -0.8 2.7 -0.5 0.5 -1.7 3 -2.6 5.7 -1 2.6 -2.2 4.5 -2.7 4.1 -0.5 -0.3 -0.9 0.5 -0.9 1.8 0 2.7 -3.1 9.2 -5.8 12.2 -1.2 1.3 -2.2 4.3 -2.6 7.8 -0.6 5.3 -0.4 5.8 2.4 8.6 1.6 1.6 3.6 3.2 4.5 3.5 0.8 0.4 1.5 1 1.5 1.5 0 0.5 2.4 1.7 5.3 2.6 4.4 1.4 5.9 1.5 8.3 0.5 1.6 -0.7 3.4 -1.1 3.9 -0.9 2 0.6 14 0.9 15.8 0.4 0.9 -0.3 1.7 -1.4 1.7 -2.5 0 -2.3 3.7 -4.1 9.2 -4.4 2 -0.1 4.6 -1 5.9 -1.9 1.3 -0.9 4.3 -1.6 6.6 -1.6 2.4 0 4.3 -0.4 4.3 -1 0 -0.5 1.7 -1 3.8 -1 2.1 0 4.3 -0.5 4.9 -1.1 0.6 -0.6 1.7 -1.1 2.4 -1.2 0.8 -0.2 5 -2 9.4 -4.1 4.4 -2.1 9.4 -4.4 11 -5.2 3.3 -1.4 14.6 -3.6 17.3 -3.3 0.9 0.1 3.4 -0.5 5.4 -1.5 2.1 -0.9 4.5 -1.6 5.5 -1.6 1 0 3.8 -1 6.3 -2.2 4.4 -2 5.2 -2.3 7.7 -2.6 0.6 -0.1 1.4 -1 1.7 -2 0.5 -1.6 1.7 -1.9 8 -1.8 6.9 0 7.5 -0.1 11 -3.2 2 -1.7 4.3 -3.2 5 -3.2 0.7 0 2.1 -0.9 3.1 -2 1.1 -1.2 3.1 -2 5 -2 2.2 0 4.1 -0.9 5.9 -2.7 1.5 -1.4 3.4 -2.7 4.4 -2.8 0.9 -0.1 3 -0.7 4.5 -1.4 1.6 -0.6 3.3 -1.1 3.8 -1.1 0.5 0 0.9 -0.3 0.9 -0.8 0 -0.4 1.7 -1.2 3.7 -1.9 3.2 -1 4.3 -0.9 7.7 0.8 5.3 2.5 5.5 2.5 9.3 -1.8 3.3 -3.7 6.6 -4.7 18.4 -5.7 4.3 -0.4 5.9 -1.2 5.9 -3 0 -0.8 0.7 -1.9 1.5 -2.6 1.3 -1.1 1.8 -1 2.9 0.6 1 1.2 2.8 1.9 6.2 2 2.7 0.2 6.7 0.6 8.9 0.9 3.8 0.6 4.2 0.4 5.5 -2.2 1.8 -3.6 15.6 -17.3 17.5 -17.3 0.7 0 1.6 0.4 1.9 0.8 0.6 0.9 8.6 0.3 8.6 -0.7 0 -0.4 0.9 -1.7 2 -2.9 2.3 -2.5 8 -3.1 8 -0.8 0 2.2 2.8 3.9 5.5 3.2 1.4 -0.4 2.5 -1.4 2.5 -2.2 0 -1.4 0.7 -1.5 4.3 -0.8 2.3 0.4 6.1 0.8 8.4 0.9 2.4 0 4.8 0.6 5.5 1.3 2 2 6.9 1.5 7.5 -0.8 0.6 -2.4 0.9 -2.4 6 -0.6 3.3 1.2 4.3 1.2 5.4 0.1 1.1 -0.9 3 -1 7.9 -0.3 3.6 0.5 9.4 1.1 13 1.2 3.6 0.2 8.3 1.1 10.5 2.1 2.2 1 6.2 1.9 8.8 2.1 5.5 0.3 8.7 2.5 8.7 6 0 1.5 1.1 2.8 3.7 4.1 3.3 1.7 3.9 2.7 5.1 7.6 1.3 5.4 3.2 7.2 4.7 4.7 0.5 -0.8 1.1 -0.7 2.1 0.1 0.8 0.7 2.7 1.3 4.2 1.4 1.5 0.1 3.8 0.3 5 0.3 2.3 0.2 2.4 0.5 1.7 5 -0.5 3.9 -0.3 5.2 1.4 7.4 1.1 1.4 2.3 4.3 2.5 6.4 0.3 2.5 1.4 4.6 3 5.9 2.3 1.9 2.4 2.4 2.2 13.1 -0.2 8.5 -0.6 11.6 -1.9 13.5 -0.9 1.3 -1.7 3 -1.7 3.9 0 0.8 -0.7 2.7 -1.5 4.3 -1 2 -1.3 5.4 -1 13.5 0.3 5.9 0.1 11.2 -0.3 11.7 -0.4 0.6 -2.6 2.5 -5 4.4 -3.3 2.5 -4.6 3 -5.6 2.2 -1.9 -1.6 -4.1 -0.5 -7.1 3.5 -1.4 1.9 -3.7 3.7 -5 4 -1.4 0.3 -2.5 0.9 -2.5 1.3 0 1.3 -5.9 3.2 -8.4 2.5 -1.5 -0.3 -3.2 -0.1 -3.9 0.5 -0.7 0.6 -4 1.3 -7.3 1.7 -6 0.7 -10.6 2.8 -13.7 6.2 -1.4 1.5 -2.7 1.8 -6.6 1.4 -4.2 -0.4 -5.2 -0.1 -8.2 2.6 -2.4 2.1 -4.1 4.9 -5.3 8.7 -1.1 3.5 -2.9 6.6 -4.8 8.3 -1.7 1.5 -4.8 5.1 -7 8 -2.1 2.8 -4.3 5.2 -4.8 5.2 -2.2 0 -13.3 8.5 -17.2 13.2 -7.4 9 -16.4 17.4 -21.3 19.8 -2.9 1.4 -5 3.2 -5.6 4.9 -0.6 1.4 -1.8 3.3 -2.7 4.2 -0.9 0.9 -2.4 2.7 -3.2 3.9 -2.5 3.9 -4.9 6 -6.7 6 -2.4 0 -13 10.5 -15 14.9 -0.9 2 -2 3.8 -2.3 4.1 -0.4 0.3 -1.3 1.9 -2 3.7 -0.8 1.7 -2.8 3.8 -4.5 4.7 -5.5 2.9 -10.8 7.3 -11.7 9.6 -0.4 1.2 -1.7 2.4 -2.8 2.7 -1.2 0.3 -2.7 2.1 -3.5 3.9 -0.7 1.8 -3.2 4.6 -5.4 6.1 -2.2 1.5 -4.3 3.6 -4.6 4.5 -0.8 2.4 1.2 5.8 3.5 5.8 1 0 2.2 0.5 2.6 1.1 0.3 0.6 1.5 0.8 2.6 0.6 1.4 -0.4 3.2 0.7 6.2 3.7 4 4.2 4.3 4.3 11.1 4.5 4.7 0.1 8 0.8 10.1 2 2.5 1.5 4 1.7 7.5 1.1 2.5 -0.5 5.1 -0.4 6.1 0.1 0.9 0.5 2.6 0.9 3.8 0.9 2.3 0 8.1 2.7 9.2 4.3 0.4 0.7 2 0.4 4.4 -0.8 4.4 -2.1 12.2 -1.5 17.9 1.2 3.4 1.6 3.9 1.6 8.2 0.1 4.4 -1.6 4.8 -1.6 7.2 0.1 1.4 0.9 4.4 2.3 6.7 3 3.5 1.1 4.5 1.1 7.3 -0.4 3.1 -1.5 3.5 -1.5 6.9 0.1 2.5 1.1 5.5 1.6 10.1 1.4 6.3 -0.3 32.4 -0.3 42.1 0 2.5 0.1 5.9 -0.4 7.5 -1.1 1.7 -0.7 3.5 -1.1 4 -0.8 0.6 0.2 7.1 0.4 14.5 0.5 7.4 0 14.8 0.3 16.4 0.7 1.8 0.3 4.1 0 5.7 -0.9 3.9 -2 4.7 -1.8 5.1 1.4 0.3 2.3 0.7 2.7 3.3 2.4 1.7 -0.1 5.5 -0.4 8.5 -0.6 3 -0.2 6.4 -0.7 7.4 -1.1 1.1 -0.5 3.7 -0.4 6 0.3 3.9 1 9 0.7 11.1 -0.8 0.6 -0.3 3.8 -0.5 7.1 -0.4 5.1 0.2 6.5 -0.1 7.9 -1.6 1 -1.1 2.2 -1.7 2.6 -1.4 1.5 0.9 9.9 1.1 9.9 0.2 0 -0.4 1.4 -0.5 3.1 -0.1 1.7 0.3 4 0 5.3 -0.7 1.9 -1 3 -0.9 5.7 0.3 1.9 0.8 7.7 2 12.9 2.5 7.9 0.9 9.9 0.8 11.8 -0.4 1.5 -1 3.4 -1.3 5.2 -0.9 1.5 0.3 3.1 0.2 3.3 -0.3 0.3 -0.4 8.1 -0.9 17.4 -1 9.2 -0.2 19.1 -0.4 21.8 -0.6 2.8 -0.1 11.1 0.1 18.5 0.6 7.4 0.5 22.5 1.1 33.5 1.3 24.1 0.4 23.3 0.4 24 1.6 0.8 1.2 8.1 1.1 12.7 -0.1 2.9 -0.8 4.5 -0.7 7.5 0.5 2.1 0.9 5.1 1.4 6.8 1.1 1.7 -0.3 5.9 0.1 9.5 1 3.6 0.8 7.4 1.6 8.6 1.7 1.1 0.1 2.8 0.8 3.6 1.5 0.8 0.7 4.7 1.6 8.6 2.1 3.9 0.5 7.5 1.2 8.1 1.5 0.5 0.4 2.7 0.9 4.8 1.1 6 0.7 11.1 2.2 13.9 3.9 1.3 0.9 2.9 1.4 3.4 1.1 0.5 -0.3 1.1 -0.2 1.3 0.3 0.3 0.4 2.9 0.7 5.8 0.6 4.6 -0.2 8.4 0.9 9.9 2.7 0.3 0.4 2.3 0.9 4.5 1.2 7.7 1.1 10.7 2 11.2 3.3 0.2 0.7 1 1.1 1.8 0.8 0.7 -0.3 2.1 0.3 3 1.3 1 1 2 1.7 2.2 1.6 0.2 -0.2 0.6 -0.3 1.1 -0.2 0.4 0.1 2.2 0 4 -0.1 1.9 -0.1 3.2 0.3 3.2 1 0 0.7 0.7 0.9 1.6 0.6 0.9 -0.3 2.9 0.5 4.8 2.1 1.9 1.4 3.5 2.5 3.7 2.4 0.7 -0.5 9.4 3.3 10.7 4.6 0.7 0.7 3.3 1.3 5.6 1.3 3 0 6.4 1.1 11 3.5 3.7 1.9 7.4 3.5 8.1 3.5 0.7 0 3.3 1.8 5.7 4.1 2.4 2.2 5.3 4.9 6.4 6 1.2 1 4.2 2.2 6.7 2.5 3.3 0.5 5.7 1.6 8.2 4 3.6 3.3 3.7 3.3 7.7 1.9 4 -1.3 4 -1.3 5.1 1.6 0.6 1.6 1.7 2.9 2.4 2.9 0.6 0 1.6 0.6 2 1.3 0.4 0.7 1.9 2 3.2 2.9 1.3 0.9 2.9 2.7 3.5 4 0.6 1.3 4 4.2 7.5 6.6 3.6 2.4 7 4.9 7.5 5.6 1.8 2.2 4.5 2.6 6.1 1 1.5 -1.5 2.4 -1.3 5.6 1.5 1.4 1.1 1.5 1.9 0.8 3.4 -1.2 2.1 -0.2 3.8 1 1.8 0.6 -1 1 -1 1.6 -0.2 0.4 0.7 0.2 1.8 -0.5 2.6 -2.4 2.9 2.5 7.8 10.4 10.4 4 1.4 5.3 2.4 6.1 4.7 0.6 1.6 3 4.9 5.3 7.3 2.4 2.4 4.1 5 3.8 5.7 -0.6 1.5 2.1 5.4 3.7 5.4 1.3 0 13.4 12.5 15.5 15.9 0.6 1.1 1.2 3.1 1.2 4.3 0 1.3 0.8 2.8 1.9 3.5 1.6 1 2 0.8 3 -1.3 0.6 -1.3 1.7 -2.4 2.4 -2.4 1.9 0 4.7 3.3 4.7 5.5 0 1 0.7 2.3 1.6 2.9 1 0.8 1.6 3 1.7 6.6 0.2 4.5 0.6 5.7 2.4 6.5 1.1 0.6 2.9 1.7 3.8 2.5 1.5 1.2 1.8 1.2 2.7 -0.4 0.9 -1.7 1.1 -1.6 2.5 0.4 0.8 1.2 1.2 3.1 0.9 4.3 -0.3 1.4 0.3 3.6 1.4 5.5 1.9 3.1 2.1 3.2 4.4 1.7 2.1 -1.4 2.6 -1.4 5.2 0 1.6 0.8 3.4 1.5 4 1.5 1.4 0 2.4 3.3 2.4 8.3 0 2.8 0.4 3.7 1.8 3.7 0.9 0 2.6 0.8 3.7 1.8 2 1.6 3.2 3.8 8.6 15.7 1.3 2.8 3.2 6.2 4.2 7.7 1.1 1.4 2.3 4.6 2.9 7 1.1 5.4 1.1 5.5 0.5 10.2 -0.6 4.1 0.8 6.6 3.7 6.6 2.2 0 6.6 2.1 10.3 4.8 2.3 1.7 3.3 3.4 3.8 6.5 0.4 2.3 1.3 5.3 2 6.7 0.7 1.4 1.6 4.6 1.9 7.3 0.5 3.2 1.6 5.5 3.3 7.1 3.2 3 4.2 10.1 2 14.5 -1.2 2.4 -1.2 3.2 -0.3 4.1 0.7 0.5 1.3 2.4 1.4 4.1 0 1.7 0.8 3.9 1.6 4.8 0.9 1 1.6 2.2 1.6 2.8 0 0.6 1 1.3 2.3 1.7 4.5 1.1 5.9 9.8 1.8 11.1 -1.9 0.6 -3.5 3.8 -3.2 6.2 0.1 0.7 1.3 2.5 2.8 4 3.6 3.9 4.2 6 4.7 16.3 0.3 5.1 0.9 9.7 1.4 10.3 1 1.2 1.5 4 1.3 6.5 0 0.6 -1 2.1 -2.2 3.3 -2.3 2.3 -1.9 6.9 0.6 6.9 1.9 0 4.4 5 4.9 9.7 0.1 2.1 0.7 4.7 1.1 5.8 1.5 3.3 0.9 12.8 -0.9 16.5 -1 1.9 -2.8 5.5 -4.2 8 -2.6 4.9 -3.1 8.9 -1.3 10.7 0.7 0.7 1.3 2.8 1.5 4.8 0.2 2.1 0.8 4.3 1.5 5.1 1.4 1.7 0.5 5.7 -2.3 9.5 -2.5 3.3 -2.6 8.8 -0.3 10.6 1 0.6 1.4 1.6 1 2.2 -1.2 2.1 -1.3 11.2 0 12.4 0.6 0.7 1.4 2.4 1.7 3.7 0.3 1.4 1.3 5 2.2 8 1 3 1.7 6.1 1.8 6.8 0.1 0.7 0.7 1.1 1.4 0.8 0.7 -0.3 1.6 0.4 1.9 1.5 0.4 1 1 1.7 1.5 1.4 1.3 -0.8 3 2.9 2.4 5.2 -0.4 1.2 0.1 2.9 1 4 6 6.7 7 8.6 6.8 12.9 -0.1 2.4 0.3 4.4 0.8 4.4 0.6 0 1 0.9 1 2 0 1.1 0.4 2 0.9 2 0.5 0 1.3 1 1.6 2.3 0.4 1.2 1.4 3.8 2.2 5.7 2.1 4.6 2.8 11.6 1.5 14.3 -0.7 1.2 -1.6 3.5 -2.2 5 -0.6 1.6 -1.9 3.1 -3 3.4 -1.1 0.3 -2 0.9 -2 1.4 0 0.5 -0.5 0.9 -1.1 0.9 -2.6 0 -13.8 6.2 -14.4 7.9 -0.3 1 -1.3 2.8 -2.3 3.9 -4.9 5.8 -4.9 5.9 -3.9 7.7 0.6 1.2 0.6 1.6 -0.1 1.2 -0.9 -0.6 -2.7 4.6 -2.3 6.7 0.1 0.5 -0.8 1.9 -2 3.2 -1.2 1.3 -1.7 2.4 -1.1 2.4 0.7 0 1.2 0.5 1.2 1.1 0 0.5 -0.5 0.7 -1 0.4 -0.6 -0.3 -1 0.1 -1 0.9 0 0.9 -0.5 1.6 -1 1.6 -0.6 0 -0.9 0.3 -0.8 0.8 0 0.4 -0.1 1.4 -0.5 2.2 -0.3 0.8 -1.1 3.3 -1.8 5.5 -1.8 6 -5 8.3 -15.5 11.5 -3.8 1.1 -4.1 1.4 -3.9 4.9 0.1 3.3 -2.8 10.1 -4.7 10.9 -0.4 0.2 -0.8 0.8 -0.8 1.2 0 0.5 -1.6 2.6 -3.5 4.7 -1.9 2.1 -3.5 4.4 -3.5 5.2 0 0.7 -0.6 1.1 -1.5 0.8 -0.8 -0.4 -1.7 -0.2 -2.1 0.4 -0.3 0.6 -1.2 0.8 -2 0.5 -0.7 -0.3 -1.7 0.2 -2.2 1.1 -1.1 1.8 -7.2 0.9 -7.2 -1.1 0 -1.3 9.9 -10.6 11.3 -10.6 0.4 0 0.7 -1.1 0.7 -2.5 0 -2.9 5.3 -8.6 9.8 -10.4 1.7 -0.7 3.1 -1.6 3 -2 0 -0.3 0.1 -1 0.2 -1.6 0.1 -0.5 0.3 -1.4 0.4 -2 1.1 -5.7 2 -8.6 3.2 -9.6 0.8 -0.6 1.4 -1.7 1.4 -2.3 0 -0.7 1.4 -2.2 3 -3.4 1.7 -1.3 3 -1.8 3 -1.2 0 0.5 0.6 1 1.3 1 2.1 0 4 -6.7 3.3 -11.5 -0.4 -2.6 -0.3 -4.6 0.4 -5 0.5 -0.3 1 -1.4 1 -2.3 0 -0.9 1.6 -3.4 3.5 -5.4 3.5 -3.7 4.4 -6.2 2.5 -7.3 -0.6 -0.4 -0.8 -1.1 -0.5 -1.6 0.4 -0.5 -0.1 -0.9 -0.9 -0.9 -0.8 0 -2.4 -1.2 -3.5 -2.6 -2 -2.6 -2 -2.6 -4.6 -0.6 -5.1 4.1 -10.6 -0.8 -8.8 -7.8 0.4 -1.5 0.1 -2.7 -1 -3.5 -2.3 -1.6 -10.1 0.9 -12 3.9 -2 2.9 -11.7 12.8 -14.7 14.9 -1.4 1 -2.5 2.3 -2.5 3 0 0.6 -0.6 1.2 -1.2 1.2 -1.5 0 -4.8 4.4 -4 5.2 0.3 0.3 -0.5 1.7 -1.9 3.1 -1.3 1.5 -2.4 3 -2.4 3.4 0 0.5 -0.6 0.8 -1.2 0.8 -0.7 0 -2.4 0.9 -3.8 1.9 -1.9 1.6 -2.2 2.2 -1.2 3.4 1 1.2 0.7 1.7 -1.7 2.7 -2.1 0.8 -3.1 2.1 -3.5 4.6 -0.4 2 -1.3 3.4 -2.1 3.4 -0.8 0 -1.5 0.7 -1.5 1.5 0 0.8 -0.6 1.5 -1.2 1.5 -0.9 0 -0.8 0.3 0.2 1 1.2 0.8 1.1 1.3 -0.8 3.9 -1.2 1.7 -2.2 3.8 -2.2 4.7 0 1.8 -4.4 6.4 -6.3 6.4 -0.7 0.1 -3 1.8 -5.1 3.9 -3 3 -3.9 4.6 -3.8 7 0 2.3 -0.9 4.2 -3.1 6.6 -1.8 1.9 -3.5 3.5 -3.9 3.5 -0.3 0 -2.7 2 -5.2 4.5 -2.6 2.5 -5.6 4.5 -6.7 4.5 -1.1 0 -2.2 0.6 -2.5 1.4 -0.3 0.8 -1.1 1.3 -1.8 1 -1.4 -0.6 -11 9.2 -12 12.3 -0.4 1.1 -2.2 2.8 -4.1 3.8 -1.9 0.9 -3.5 2.2 -3.5 3 0 2.1 -2 1.8 -2.1 -0.2 -0.1 -2.7 -2.8 3.7 -2.9 6.8 0 3.5 -3.4 7.2 -7.7 8.4 -2 0.6 -4.1 1.9 -4.7 3 -0.6 1 -1.7 2.5 -2.3 3.3 -0.7 0.7 -1.3 3.2 -1.3 5.5 0 3.7 -0.4 4.5 -3.6 6.5 -2.3 1.5 -4 2 -4.7 1.4 -1.5 -1.2 -8.2 -0.6 -11.9 0.9 -1.7 0.7 -2.8 1.9 -2.8 3 0 1.1 -0.3 1.8 -0.7 1.8 -2.1 -0.3 -3.2 0.3 -3.8 2.1 -0.3 1.1 -1.1 2 -1.7 2 -0.6 0 -2.6 1.1 -4.4 2.5 -1.8 1.4 -3.9 2.5 -4.8 2.5 -1.7 0 -6.6 6 -6.6 8.1 0 1.6 -1.3 2.9 -8.2 7.8 -2.7 1.9 -4.8 4.1 -4.8 4.9 0 1.6 -3.9 5.1 -5.7 5.2 -0.6 0 -1.8 0.8 -2.5 1.8 -1.4 2.1 -11.3 9.2 -12.6 9.2 -0.5 0 -1.7 0.9 -2.8 2.1 -1 1.2 -3.1 2.8 -4.7 3.5 -1.5 0.8 -2.5 1.9 -2.2 2.4 0.4 0.6 -0.3 1 -1.5 1 -1.2 0 -1.9 0.3 -1.7 0.8 0.3 0.4 -0.9 0.7 -2.6 0.6 -3.2 -0.1 -9.7 3.1 -9.7 4.7 0 0.5 -0.6 0.9 -1.2 0.9 -0.7 0 -2.9 1.7 -4.8 3.8 -2 2 -5.1 4.8 -6.9 6.1 -1.8 1.4 -3.7 3.5 -4.2 4.8 -0.5 1.3 -1.5 2.3 -2.2 2.3 -0.8 0 -3 1.3 -4.8 3 -1.9 1.6 -3.9 3 -4.4 3 -2.7 0 -9.2 4.3 -10.7 7.1 -1 1.9 -1.8 2.5 -2.1 1.7 -0.3 -0.7 -0.6 -0.3 -0.6 0.9 -0.1 1.3 -2.1 3.8 -5.3 6.4 -2.9 2.4 -5.5 4.6 -5.8 4.9 -0.5 0.5 -2.9 0.9 -9.1 1.3 -1.9 0.2 -4.8 1.2 -6.5 2.3 -1.6 1.2 -4.2 2.7 -5.9 3.6 -1.6 0.8 -4 2 -5.2 2.6 -5.2 2.7 -6.3 3.2 -7.7 3.2 -0.8 0 -3.5 2 -6 4.5 -2.6 2.5 -5.1 4.5 -5.6 4.5 -0.6 0 -1 0.4 -1 0.9 0 0.5 -1.1 1.2 -2.5 1.5 -1.3 0.3 -3.6 1.7 -5.1 3.1 -1.5 1.4 -3.2 2.5 -3.7 2.5 -0.6 0 -2.2 1 -3.5 2.3 -1.4 1.2 -2.2 1.6 -1.7 0.8 0.6 -1.1 0.4 -1.3 -0.9 -0.8 -1 0.4 -1.9 0.7 -2.2 0.7 -0.2 0 -0.1 0.6 0.1 1.3 0.5 1.1 -1.4 2.2 -7.7 4.6 -1.6 0.6 -2.8 1.6 -2.8 2.2 0 0.6 -0.7 0.8 -1.6 0.5 -0.9 -0.3 -2.4 0.4 -3.7 1.8 -3.1 3.3 -8 5.6 -12 5.6 -1.9 0 -4 0.7 -4.8 1.6 -0.7 0.8 -3 2.4 -5.1 3.5 -2.1 1.1 -3.6 2.3 -3.4 2.8 0.3 0.5 -1 2.3 -3 4 -2.7 2.5 -4.7 3.4 -8.7 3.8 -4.5 0.5 -5.6 1 -7.7 3.9 -3.2 4.3 -4 4.6 -15.5 5.8 -12.2 1.3 -16.5 2.9 -16.5 6.2 0 2.2 -6.2 3.4 -17.5 3.3 -6 0 -12.1 0.2 -13.5 0.6 -1.4 0.4 -4.6 1 -7.1 1.4 -2.6 0.4 -5.8 1.5 -7.2 2.4 -1.4 0.9 -3.3 1.4 -4.1 1.1 -0.9 -0.3 -1.6 -0.2 -1.6 0.4 0 0.9 -3.8 2.4 -6.7 2.6 -0.7 0.1 -3.6 2.4 -6.5 5.1 -5.4 5.1 -12.2 9 -13.9 8 -0.5 -0.4 -1.2 0.1 -1.5 0.9 -0.8 2 -3.9 3.1 -9.4 3.2 -2.5 0 -6.3 0.8 -8.5 1.7 -3.7 1.4 -4.1 1.4 -5.7 -0.2 -0.9 -1 -3.5 -2.1 -5.8 -2.5 -3.3 -0.5 -4.7 -0.2 -7 1.4 -1.6 1.1 -3.1 2.8 -3.4 3.8 -0.8 2.3 -5.7 5.2 -9 5.2 -2.3 0 -6.8 1.6 -11.8 4.1 -1 0.5 -3.1 0.9 -4.8 0.9 -1.7 0 -4.1 0.9 -5.3 2 -1.9 1.8 -3 2 -7.7 1.4 -3 -0.3 -6 -1.1 -6.7 -1.6 -2.3 -1.8 -11.3 2 -11.3 4.8 0 0.7 -1.1 3.3 -2.4 5.6 -2.2 3.9 -2.8 4.3 -7.2 4.9 -2.7 0.3 -5.6 0.9 -6.4 1.2 -0.8 0.4 -2.8 0.9 -4.5 1.1 -1.6 0.3 -3.1 1 -3.3 1.6 -0.2 0.5 -3 1 -6.2 1 -3.2 0 -6.2 0.5 -6.5 1 -0.3 0.6 -1.3 1 -2.1 1 -0.9 0 -1.2 -0.5 -0.8 -1.2 0.5 -0.8 -0.2 -0.9 -2.6 -0.5 -1.8 0.4 -3.6 0.7 -4.1 0.7 -1.4 0 -1.1 2.8 0.4 3.3 0.6 0.3 0.1 0.6 -1.1 0.6 -3.1 0.1 -8.2 3.2 -8.2 4.9 0 0.8 -0.6 1.2 -1.2 0.9 -0.7 -0.2 -2 0.2 -2.9 1 -1.7 1.5 -7.9 2.1 -9.7 0.9 -0.7 -0.4 -1.2 -1.3 -1.2 -2.1 0 -1.7 -2.6 -2.6 -5.3 -2 -1.2 0.3 -5.3 0.7 -9.2 0.9 -8.5 0.4 -10.3 1.1 -11.1 4.1 -0.5 2.2 -4.1 4.5 -6.9 4.5 -2.5 0 -6.4 2.3 -7 4 -0.6 2 -6.3 3.3 -8.1 1.9 -0.6 -0.5 -1.3 -0.7 -1.6 -0.4 -0.2 0.3 -3.7 0.7 -7.6 0.9 -5.3 0.2 -7.2 0 -7.6 -1 -0.3 -0.8 -1.2 -1.4 -1.9 -1.4 -0.8 0 -2.2 -0.9 -3.2 -2 -2.4 -2.6 -3.8 -2.5 -7.1 0.5 -1.9 1.8 -3.8 2.5 -6.8 2.5 -2.3 0 -5 0.7 -6 1.5 -1.1 0.8 -2.9 1.2 -4.1 0.9 -1.3 -0.3 -2.7 0.1 -3.4 1 -1.9 2.3 -3.3 2 -7.7 -1.5z m806.3 -447.8 c2.7 -1.6 5.6 -4.3 6.6 -6 1.6 -2.7 1.6 -3.5 0.5 -5.8 -0.7 -1.5 -2 -2.9 -2.9 -3.1 -1.7 -0.3 -16.5 13.5 -15.5 14.5 0.8 0.8 4.9 3.1 5.8 3.2 0.4 0.1 2.9 -1.2 5.5 -2.8z"/>
  <path d="M1246 1676.9 c-2.8 -1 -5.4 -4.5 -4.5 -5.9 0.4 -0.6 1.9 -1 3.4 -1 2.8 0 9.6 -4 14.5 -8.5 1.4 -1.3 2.7 -2.4 2.9 -2.4 0.1 0 1 -0.3 2 -0.7 1.3 -0.4 2.6 0 4 1.5 1.2 1.1 1.6 2.1 1 2.1 -0.6 0 -0.9 0.8 -0.6 1.8 0.3 1.2 -0.4 2.2 -2.1 3 -1.6 0.7 -2.6 2 -2.6 3.2 0 1.3 -0.7 2 -2 2 -1.1 0 -2 0.3 -2 0.8 0 0.4 -1 1.2 -2.2 1.7 -1.3 0.6 -2.2 1.6 -2.1 2.2 0.3 1.3 -6.2 1.4 -9.7 0.2z"/>
  <path d="M115.4 1616.4 c-1.6 -1.1 -3.1 -1.2 -7.3 -0.4 -2.9 0.5 -5.8 0.7 -6.4 0.3 -1 -0.6 -10.1 -1.3 -16.7 -1.3 -3.8 0 -11.1 -4.1 -12.3 -7 -1.7 -3.9 -3.8 -6 -6.2 -6 -1.5 0 -2.7 -1.2 -4.2 -4.3 -1.6 -3.3 -3.2 -4.9 -7.6 -7.1 -3.2 -1.6 -5.4 -3.3 -5.1 -4 0.2 -0.7 -0.7 -2.3 -2.1 -3.6 -2.4 -2.3 -3.4 -6 -1.6 -6 2 0 1.8 -3 -0.3 -5.2 -4.1 -4.1 -6.8 -10.5 -7.1 -16.8 -0.2 -3.3 -1.5 -9.4 -3 -13.6 -2.1 -5.8 -2.8 -9.9 -3 -17 -0.3 -9.4 -0.2 -9.5 3 -13.1 1.9 -2.1 3.8 -5.9 4.7 -9.2 2.3 -8.4 3.9 -17.7 3.3 -19.3 -0.3 -0.8 0.3 -2.3 1.5 -3.3 1.1 -1 2 -2.2 2 -2.6 0 -0.5 1.1 -2.5 2.5 -4.5 1.4 -2 2.5 -4.7 2.5 -6 0 -1.3 0.6 -2.7 1.3 -3.1 0.7 -0.4 2.5 -2.8 4.1 -5.3 1.6 -2.5 3.5 -4.9 4.2 -5.3 0.8 -0.4 2.1 -3.3 3 -6.3 1.2 -4.1 2.9 -6.8 6.7 -10.7 9.2 -9.4 19.2 -20.8 20.9 -24.1 0.9 -1.7 3.9 -5.3 6.7 -8.1 2.8 -2.7 5.1 -5.4 5.1 -6 0 -0.6 1.9 -2.9 4.2 -5.2 2.4 -2.2 6.9 -6.8 10.2 -10.2 3.2 -3.4 6.5 -6.1 7.2 -6.1 0.7 0 2.9 -1.6 4.9 -3.6 2 -1.9 5.1 -4.2 6.9 -4.9 1.8 -0.8 4.1 -2.6 5 -4 0.9 -1.4 3.6 -3.7 5.9 -5.1 3.9 -2.5 5.9 -4.1 12.5 -10.5 1.5 -1.4 4.1 -3.4 5.8 -4.4 1.7 -1 3.9 -3 4.8 -4.6 0.9 -1.5 2.5 -3.1 3.6 -3.4 1.1 -0.4 2.5 -1.5 3.1 -2.7 0.7 -1.4 1.7 -1.8 3.1 -1.4 1.3 0.3 3.1 -0.3 4.6 -1.5 1.4 -1 3.6 -1.9 4.9 -1.9 2.8 0 8.3 -2.6 8.3 -4 0 -0.6 0.6 -1 1.4 -1 0.8 0 3.6 -2.3 6.3 -5.1 3.2 -3.4 6.1 -5.4 8.9 -6.1 2.5 -0.7 4.4 -1.9 5 -3.2 0.5 -1.2 1.5 -2.2 2.2 -2.2 0.6 -0.1 2 -0.2 3 -0.3 1.5 -0.1 3.9 -1.4 11.1 -6.3 1.4 -1 3.3 -2.1 4.1 -2.5 0.8 -0.3 3.1 -1.9 5.1 -3.5 2.3 -1.7 4.9 -2.8 6.8 -2.8 1.7 0 3.1 -0.3 3.1 -0.7 0 -0.9 4.8 -3.3 6.5 -3.3 0.6 0 1.8 -0.8 2.7 -1.7 5.4 -5.9 11.9 -9.2 15.3 -7.9 0.7 0.2 2.1 -0.6 2.9 -2 0.9 -1.3 2.4 -2.4 3.4 -2.4 1 0 2.3 -0.5 3 -1.2 0.7 -0.7 1.2 -0.8 1.2 -0.3 0 0.4 0.8 0.1 1.8 -0.7 0.9 -0.9 4.2 -2.6 7.2 -3.8 7.5 -3 10.6 -4.7 13.3 -7.4 1.5 -1.5 4.5 -2.6 9.7 -3.5 4.1 -0.8 8.2 -1.9 9.2 -2.5 1.3 -0.8 2.3 -0.8 3.8 0.2 3 1.9 4.4 1.5 6.9 -1.9 1.7 -2.3 2.9 -2.9 4.4 -2.5 1.4 0.3 2.8 -0.3 4.4 -2.2 2 -2.3 3 -2.7 7.3 -2.5 3.9 0.1 5 -0.2 5 -1.4 0 -1.1 0.7 -1.4 2.8 -1 1.7 0.4 4.6 -0.3 8 -1.9 6.1 -2.9 7.5 -2.4 9.9 3.4 1.6 3.8 5.4 4.4 7.7 1.1 1.1 -1.7 2 -2 4.5 -1.4 2.4 0.5 3.5 0.2 5.4 -1.7 2.6 -2.6 8.7 -4.8 13.3 -4.8 1.6 0 3.4 -0.4 3.9 -0.8 1.6 -1.1 4.5 -6 4.5 -7.5 0 -3.9 12.3 -9.4 16.8 -7.4 1.2 0.6 2.2 1.4 2.2 1.9 0 0.4 0.6 0.8 1.3 0.8 0.7 0 1.8 0.9 2.5 2 1.4 2.2 3.2 2.6 4.9 0.9 1.4 -1.4 9.3 -2.1 10.8 -1 0.5 0.4 4.4 0.7 8.6 0.7 5.5 -0.1 8.3 -0.6 10.3 -2 1.6 -1 2.5 -1.3 2.1 -0.6 -0.5 0.8 0.6 1.1 4.2 0.9 2.7 -0.1 5.5 0.1 6.2 0.5 1.8 1.2 6.1 -0.2 6.1 -1.9 0 -2.3 4.9 -4.3 6 -2.5 0.7 1.1 1.7 1 5.7 -0.7 2.6 -1.1 4.7 -2.5 4.6 -3.2 -0.3 -1.2 2.3 -1.6 2.9 -0.3 0.7 1.6 8.5 6.2 10.5 6.2 2.6 0 3.2 -0.9 5.5 -7.5 1 -2.7 2.5 -5.4 3.4 -6 0.9 -0.5 2.9 -2 4.4 -3.2 1.5 -1.2 3.8 -2.4 5.1 -2.7 4 -0.7 5.9 -1.7 5.9 -3.1 0 -0.9 0.8 -1.2 2.3 -0.9 1.2 0.2 3.7 -0.3 5.6 -1.2 1.9 -0.9 4.6 -1.6 6 -1.6 1.4 0 4.3 -1.1 6.4 -2.6 3.4 -2.3 4.2 -2.5 7 -1.4 2.1 0.8 3.5 0.8 4.1 0.2 1.1 -1.1 4.6 -1.3 7 -0.4 0.9 0.3 2.3 2.1 3.1 3.8 2.4 4.9 6.4 6 18.1 4.6 9.4 -1.1 9.6 -1.1 13.2 1.3 2.1 1.3 4.7 2.7 5.9 3.1 1.2 0.4 3.3 1.9 4.5 3.4 4.7 5.4 11.8 11.2 13.1 10.6 0.8 -0.3 2 0.2 2.7 1.1 0.7 0.8 2 1.5 2.9 1.5 1 0 2.6 1.6 3.7 3.7 1.7 3.3 2.4 3.7 6.4 3.9 6.2 0.5 10.3 1.5 11.5 3 0.6 0.6 2.4 1.4 4 1.7 9.1 1.6 10 2.1 11.3 6.2 2.4 7.2 5.1 8.5 11.4 5.5 2 -0.9 3.4 -1 5.8 -0.1 3 1 3.4 0.8 7.1 -3.1 3.8 -4.1 4 -4.2 7.2 -3 1.8 0.7 4 1.2 4.8 1.2 0.8 0 2.1 0.9 2.9 2 0.8 1.1 2.2 2 3.2 2 1 0 1.8 0.5 1.8 1 0 0.6 0.6 1 1.3 0.9 2.8 -0.3 4.7 0.2 4.5 1.3 -0.2 0.6 1.8 1.8 4.4 2.5 3.3 1 4.9 2 5.3 3.6 1.3 4.3 4.5 10.7 5.5 10.7 0.6 0 1 0.5 1 1 0 0.6 1.1 2.2 2.5 3.6 1.4 1.4 2.5 3.5 2.5 4.8 0 1.2 0.3 2.6 0.8 3 0.4 0.4 0.7 1.1 0.7 1.5 0 0.4 0.8 1.6 1.8 2.6 1.1 1.1 1.6 2.6 1.3 3.9 -0.7 2.9 3 6.6 6.7 6.6 2 0 4 1.1 6.3 3.4 2.8 2.8 3.4 4.2 3.5 7.8 0 2.3 0.2 5.4 0.4 6.8 1.3 11.1 1.9 14.1 4.1 18.5 1.5 3.1 2.6 7.7 3 11.7 0.3 4.6 1.3 8.2 3.1 11.3 2 3.6 2.6 6.2 2.8 12.2 0.1 4.1 0.7 7.8 1.2 8.2 1.9 1.2 4.3 7 4.3 10.5 0 3.5 2.1 6.6 4.4 6.6 0.9 0 1.4 1.9 1.5 5.7 0.1 3.2 0.6 6.2 1.1 6.7 1.5 1.5 1.2 6.2 -0.5 7.6 -2 1.7 -1.9 3.3 0.5 4.8 1.5 0.9 2 2.3 2 5.2 0 2.2 -0.4 4 -0.9 4 -1.2 0 -5.1 6.7 -5.7 10 -0.3 1.4 -2 4.3 -3.7 6.3 -2.8 3.2 -3.8 3.7 -8.2 4 -4.4 0.3 -5.2 0.7 -7.3 3.7 -1.3 1.9 -3 3.9 -3.8 4.3 -2 1.1 -8.6 1.7 -9.9 0.9 -0.5 -0.4 -4.2 -0.7 -8.2 -0.7 -6.1 0 -7.5 -0.4 -9.2 -2.2 -1.1 -1.1 -2.6 -2.3 -3.3 -2.5 -1 -0.4 -1 -1.2 -0.1 -4.1 1.2 -4.1 1.6 -3.6 -9 -13.6 -2.6 -2.4 -4.7 -5 -4.7 -5.8 0 -0.7 -0.9 -1.8 -2 -2.5 -1.1 -0.7 -2 -1.7 -2 -2.3 0 -0.5 -1.9 -1.8 -4.3 -2.7 -4.5 -1.8 -21 -2.7 -26 -1.3 -1.9 0.5 -4 0.2 -6.6 -0.9 -3.6 -1.7 -4 -1.7 -10.5 0.5 -3.8 1.2 -7.6 2.9 -8.6 3.8 -3 2.8 -5.8 4.9 -8.2 6.1 -1.3 0.7 -3.8 2.8 -5.5 4.6 -2.7 2.8 -4.1 3.4 -7.3 3.4 -4.1 0 -4.7 -0.8 -3 -4 1.9 -3.5 -0.7 -3.4 -8.7 0.3 -1.3 0.6 -2.3 1.6 -2.3 2.3 0 2.2 -3.1 4.4 -6.2 4.4 -2.1 0 -3.1 0.6 -3.5 2 -0.3 1.1 -1 2 -1.7 2.1 -0.6 0 -1.8 0.2 -2.7 0.4 -1.3 0.2 -1.8 -0.8 -2.2 -5.4 -0.4 -4.6 0 -6.4 1.9 -9.9 2.9 -5.2 3 -5.9 0.3 -6.7 -1.1 -0.4 -2.5 -1.9 -3 -3.5 -0.7 -1.9 -1.9 -3 -3.7 -3.3 -5 -1 -5.5 -0.3 -9.8 15 -0.2 0.9 -2.9 1.2 -9.4 1 -7.2 -0.2 -8.9 0.1 -8.5 1.1 1.7 4.4 1.6 6.3 -0.4 9.1 -1.2 1.6 -2.1 3.4 -2.1 3.9 0 0.6 -2.2 3.3 -4.9 6.1 -2.7 2.7 -4.6 5.3 -4.3 5.6 0.3 0.3 -0.6 0.5 -1.9 0.5 -2.2 0 -6 2.4 -9.9 6.4 -2.5 2.5 -5.8 7.2 -6.6 9.6 -0.9 2.8 -4.7 4.3 -11.9 4.7 -3.8 0.3 -7.4 0.8 -8 1.2 -2 1.6 -5.5 1.8 -7.2 0.5 -2.5 -1.8 -3.3 -1.7 -3.3 0.5 0 1 1 2.5 2.3 3.4 1.8 1.2 2 1.8 1.1 3.4 -1.6 2.6 -4.1 2.8 -4.9 0.4 -0.8 -2.5 -3.1 -2.7 -7.5 -0.5 -5.9 3 -11.7 2.1 -10.5 -1.6 0.4 -1.3 0 -2 -1.5 -2.5 -3.1 -1 -2.5 -4.7 1.1 -6.7 1.7 -1 3.5 -1.8 4.1 -1.8 2.3 0 10.6 -7.4 11.8 -10.5 1 -2.6 2.1 -3.5 4.6 -4 2.4 -0.4 3.6 -1.3 4 -2.9 0.3 -1.3 2.6 -4 5 -6 2.5 -2.1 4.9 -4.8 5.4 -6.1 0.5 -1.3 2.7 -3.3 4.9 -4.6 2.3 -1.3 4.7 -3.6 5.6 -5.6 0.9 -1.8 2.4 -3.7 3.4 -4.2 0.9 -0.5 2.6 -2.8 3.6 -5 1 -2.3 2.4 -4.1 3.1 -4.1 0.7 0 2.9 -2.4 4.8 -5.4 1.9 -3 4.3 -5.9 5.3 -6.4 1 -0.6 2.9 -3.5 4.3 -6.6 1.3 -3.1 2.7 -5.6 3.1 -5.6 0.3 0 2.1 -2.2 4 -5 1.9 -2.7 3.7 -5 4.2 -5 0.4 0 0.7 -0.7 0.7 -1.5 0 -0.8 0.4 -1.5 0.8 -1.5 0.4 0 1.3 -1.5 2 -3.4 0.7 -1.8 2.1 -4.1 3.2 -5.1 1.1 -1 2 -2.2 2 -2.7 0 -0.5 1.9 -4.2 4.2 -8.1 2.3 -4 4.1 -7.6 4 -8.1 -0.2 -0.4 0.6 -2.4 1.8 -4.3 1.1 -1.9 2 -4.3 2 -5.3 0 -1.1 0.9 -3.5 2 -5.5 1.1 -2 2 -4.6 2 -5.8 0 -3.2 -6.2 -14.7 -7.9 -14.7 -0.8 0 -2.7 1.1 -4.1 2.5 -1.4 1.3 -3.5 2.6 -4.7 2.8 -1.1 0.1 -2.7 0.8 -3.5 1.5 -0.8 0.6 -3.8 1.7 -6.8 2.3 -5.3 1.1 -5.4 1.1 -7.9 -2 -2.6 -3.1 -2.6 -3.1 -15.1 -3.5 -9.9 -0.4 -13.5 -0.9 -17.2 -2.5 -2.6 -1.2 -5.4 -1.8 -6.4 -1.4 -1.1 0.4 -1.5 0.3 -1 -0.5 0.4 -0.6 -0.5 -0.5 -2.1 0.3 -1.5 0.8 -3.5 1.5 -4.5 1.5 -0.9 0 -1.8 0.4 -2 1 -0.1 0.5 -3 1.5 -6.3 2.1 -3.3 0.6 -6.7 1.3 -7.5 1.6 -3.2 1.2 -4.7 1.3 -9.2 0.2 -3.9 -0.9 -5.1 -0.8 -6.9 0.4 -2.3 1.6 -4.3 1.3 -7.1 -1 -2 -1.8 -3.8 -0.9 -3.8 1.7 0 2.6 -4.1 3.5 -9.8 2.2 -3.7 -0.8 -5.2 -0.7 -7.5 0.5 -1.7 0.8 -4 1.2 -5.3 0.9 -1.4 -0.4 -4.4 -0.1 -6.7 0.5 -2.3 0.6 -7.1 1.2 -10.7 1.3 -8.1 0.2 -18.4 3.3 -22 6.6 -4.3 4 -11 6.8 -18 7.6 -3.6 0.4 -6.8 1.1 -7.1 1.7 -0.4 0.5 -2.6 1.1 -5 1.2 -2.9 0.2 -4.8 0.9 -6 2.4 -1.3 1.6 -2.7 2 -6.2 1.9 -3.8 -0.2 -5 0.2 -7.1 2.5 -1.4 1.6 -2.6 3.3 -2.6 3.9 0 0.7 -1.4 0.8 -4.1 0.4 -5.3 -0.8 -6.9 0.4 -6.2 4.9 0.7 4.6 -1.2 5.3 -6.5 2.5 -2.3 -1.2 -4.6 -1.9 -5.2 -1.5 -0.5 0.3 -1.9 2.6 -3 5.1 -1.8 3.9 -2.4 4.4 -5.3 4.4 -1.8 0 -4.7 -0.4 -6.5 -0.9 -2.6 -0.8 -4.1 -0.5 -7.5 1 -8.5 4.1 -9.7 5 -9.7 7.2 0 1.2 -1.2 3.5 -2.6 5.1 -2.4 2.7 -2.9 2.8 -8.4 2.3 -4.6 -0.4 -6.5 -0.1 -9 1.4 -4.3 2.7 -9.4 7.8 -11.2 11.4 -7 13.8 -9.7 16.2 -14.9 13.4 -1.6 -0.8 -2.5 -0.7 -4 0.7 -1 0.9 -1.9 2.1 -1.9 2.5 0 2.1 -8.6 10.9 -10.7 10.9 -0.7 0 -3.6 1.8 -6.4 4 -2.8 2.2 -5.8 4 -6.7 4 -1.6 0 -8.9 8.2 -15.5 17.3 -2 2.7 -3.4 3.7 -4.9 3.5 -1.7 -0.2 -3 1 -5.7 4.9 -2.4 3.6 -4.7 5.6 -6.9 6.4 -1.9 0.6 -3.9 2.3 -4.7 4 -0.8 1.5 -2.4 3.3 -3.5 3.9 -1.1 0.6 -2 2 -2 3 0 2.3 -2.9 2.7 -4.8 0.8 -1 -1 -1.5 -1 -2.2 0.2 -1.3 2 -1.3 5.7 0 6.5 0.6 0.4 0.8 1 0.5 1.5 -0.8 1.3 2.4 6 4.1 6 0.8 0 2.3 -0.9 3.4 -2 2.4 -2.4 4.6 -2.6 5.3 -0.5 0.4 0.8 2.8 2.5 5.5 3.9 7.1 3.6 7.7 6.4 2.4 10 -2.4 1.6 -2.8 2.5 -2.8 7.3 -0.1 4.9 -0.5 5.7 -3.6 8.6 -4.8 4.4 -7.8 10.6 -7.8 16.3 0 5 -3.9 13.4 -6.3 13.4 -0.7 0 -3 3.8 -5.2 8.3 -3.1 6.3 -4.5 8.1 -5.9 7.9 -2.9 -0.5 -5.6 2.7 -5.6 6.5 0 2.8 -1 4.5 -5.3 8.9 -2.8 3 -6.1 5.6 -7.2 5.8 -1.6 0.2 -2.1 1.3 -2.5 4.9 -0.7 5.5 -0.9 5.8 -7.8 9.2 -2.9 1.5 -5.5 3.2 -5.8 3.9 -0.6 1.5 -7.1 2 -7.9 0.6 -1.3 -2.1 -5.5 -1.1 -6.7 1.5 -0.7 1.6 -1.7 2.4 -2.6 2 -0.8 -0.3 -2 -0.1 -2.7 0.5 -0.7 0.6 -1.7 1 -2.1 0.9 -1.5 -0.4 -10.4 2.3 -10.4 3.1 0 0.9 -4.7 3 -6.8 2.9 -0.9 0 -2.6 -0.7 -3.8 -1.5z m219.4 -353.5 c1.9 -0.4 3.6 -1 4 -1.4 0.8 -0.8 -1.8 -2.5 -3.9 -2.5 -2.3 0 -8.9 2.8 -8.9 3.8 0 1.6 1.4 2.2 3.4 1.6 1.2 -0.4 3.6 -1 5.4 -1.5z m13 -7 c-0.2 -0.6 -0.8 -1 -1.3 -1 -0.5 0 -1.1 0.4 -1.3 1 -0.2 0.6 0.4 1.1 1.3 1.1 0.9 0 1.5 -0.5 1.3 -1.1z m19.2 -4.4 c0.8 -0.9 0.6 -1.7 -0.5 -2.9 -0.9 -0.9 -2 -1.6 -2.4 -1.6 -1.3 0 -5.3 4.8 -4.7 5.8 0.7 1.2 6.3 0.3 7.6 -1.3z"/>
  <path d="M1292 1617 c0 -1.2 4 -3.3 4.8 -2.5 0.4 0.4 -0.2 1.3 -1.2 2.1 -2.3 1.6 -3.6 1.8 -3.6 0.4z"/>
  <path d="M1313.4 1613 c-0.6 -0.6 -2.2 -1.2 -3.5 -1.4 -1.3 -0.1 -3.1 -0.5 -3.9 -0.8 -3.5 -1.4 -10.3 -2.6 -11.6 -2.1 -2.4 0.9 -1.6 -1.2 1.6 -4.2 1.7 -1.6 3 -2.5 3 -1.9 0 0.5 0.4 0.5 0.8 -0.1 0.9 -1.3 10.1 -4.3 16.5 -5.4 3.9 -0.7 4.7 -0.6 4.7 0.7 0 1.1 0.8 1.3 3.5 0.9 4.2 -0.7 9.8 -4.4 8.9 -5.9 -0.4 -0.7 -0.2 -0.8 0.4 -0.4 0.7 0.4 1.2 0.1 1.2 -0.7 0 -1.8 5.4 -5.7 8 -5.7 1.6 0 2 0.6 2 3 0 3.4 -2.9 5.5 -6.1 4.5 -2.7 -0.9 -4.9 1.1 -4.9 4.6 0 1.5 -0.4 3.1 -1 3.4 -0.5 0.3 -1 1.5 -1 2.6 0 2.4 -1.8 4.3 -4.5 4.7 -4.8 0.8 -9.9 2 -9.1 2.1 0.6 0 0.1 0.8 -1 1.6 -2.3 1.7 -2.7 1.8 -4 0.5z"/>
  <path d="M1361 1576.6 c-2.1 -1.7 -2.5 -3 -2.4 -6.6 0.1 -2.5 1.1 -6.5 2.2 -9 1.2 -2.5 2.2 -5 2.2 -5.5 0 -0.6 2 -2.8 4.5 -4.8 2.5 -2.1 4.5 -4.4 4.5 -5.1 0 -0.6 1.8 -2 4 -3 4.5 -2 7.2 -5.3 7.6 -9.5 1.2 -10.5 12.5 -22 17.4 -17.6 2.1 1.9 2.7 1.9 5.2 -0.5 3 -2.7 6.4 -2.6 7.2 0.3 0.9 3.5 0.9 3.5 -4.4 8.8 -2.7 2.8 -5.4 6.7 -6.1 8.7 -1.1 3.3 -3.5 7.9 -4.9 9.2 -1 1 -3.1 4.5 -4.3 7.3 -0.6 1.5 -1.5 2.7 -1.9 2.7 -0.4 0 -0.8 0.8 -0.8 1.9 0 2.7 -6.4 9.6 -11.3 12.1 -4.3 2.3 -6.9 4.9 -6.1 6.2 0.3 0.5 0.1 0.8 -0.4 0.8 -0.5 0 -2.2 1.2 -3.7 2.6 -3.7 3.4 -5.5 3.6 -8.5 1z"/>
  <path d="M1354.3 1558.3 c-1.8 -0.7 -1.6 -2.7 0.5 -4.6 2.6 -2.4 4 -2.1 3.5 0.8 -0.6 2.8 -2.3 4.4 -4 3.8z"/>
  <path d="M1412.2 1504.3 c-0.9 -2.9 -0.9 -3.9 0.1 -4.5 0.7 -0.4 0.8 -0.8 0.4 -0.8 -0.5 0 -0.1 -1 0.7 -2.2 0.9 -1.2 1.6 -3.1 1.6 -4.1 0 -1.8 2.4 -6 4.7 -8.5 0.7 -0.7 1.3 -1.7 1.3 -2.2 0 -0.4 1 -1.1 2.3 -1.5 5.2 -1.7 7 -1.6 9.2 0.5 2 1.9 2.1 2.5 1.1 6.2 -1.6 5.8 -6.1 9.1 -12.1 8.6 -4.8 -0.3 -5.5 0.2 -3 2.2 2.1 1.7 1.9 6.3 -0.3 8.3 -2.9 2.7 -4.8 2 -6 -2z"/>
  <path d="M505 1488 c0 -0.5 0.6 -1 1.4 -1 0.7 0 2 -0.7 2.7 -1.6 1.2 -1.4 1.4 -1.4 2 0.3 0.3 1 0.5 2.1 0.2 2.6 -0.6 1.1 -6.3 0.9 -6.3 -0.3z"/>
  <path d="M693 536.6 c0 -2 1.9 -3.1 3.2 -1.8 0.7 0.7 0.3 1.4 -1.1 2.1 -1.7 1 -2.1 0.9 -2.1 -0.3z"/>
  <path d="M698.4 533.9 c-1 -1.6 1.6 -3.8 5.9 -5 2.2 -0.6 5.7 -2.1 7.8 -3.5 2.1 -1.3 4.7 -2.4 5.8 -2.4 1 0 2.4 -0.7 3.1 -1.5 0.6 -0.8 3.5 -2.6 6.3 -3.9 5.6 -2.7 15 -9.2 15.5 -10.7 0.2 -0.5 0.8 -0.9 1.2 -0.9 1.8 0 17.5 -10.9 22.4 -15.6 1.8 -1.8 4.9 -3.9 6.9 -4.9 2.1 -0.9 3.7 -2.1 3.7 -2.6 0 -0.5 0.5 -0.9 1.1 -0.9 0.6 0 4.3 -3 8.4 -6.6 4 -3.7 9 -7.6 11.2 -8.8 2.1 -1.2 4.4 -2.9 5.1 -3.9 0.8 -1 3 -2.5 5 -3.5 2 -0.9 4.1 -2.7 4.6 -3.8 0.6 -1.2 2.4 -3 4 -3.9 3.7 -2.1 9.9 -8.3 10.9 -10.8 0.3 -0.9 2 -2 3.8 -2.4 1.7 -0.3 3.6 -1.4 4.2 -2.4 0.7 -1.1 1.7 -1.9 2.4 -1.9 0.7 0 1.8 -0.9 2.5 -2 0.7 -1.1 1.8 -2 2.5 -2 1.6 0 5.5 -3.8 7.7 -7.5 1 -1.6 3.6 -4.3 5.7 -6 6 -4.5 8 -6.7 9.5 -10.2 0.8 -1.8 2.7 -3.9 4.3 -4.7 1.5 -0.8 3.6 -2.8 4.6 -4.3 1 -1.5 3.2 -4.2 5 -6 1.8 -1.7 3.5 -4 3.7 -5 0.2 -1 1.3 -1.9 2.5 -2.1 1.2 -0.2 2.5 -1.2 2.8 -2.3 0.4 -1.1 1 -1.7 1.4 -1.5 0.4 0.3 5.3 -4.3 10.8 -10.2 12.9 -13.6 14.3 -15.2 14.3 -16.8 0 -0.7 2.4 -3.6 5.3 -6.6 8.1 -8.1 21.7 -23.4 21.7 -24.3 0 -0.3 2.2 -3.9 4.9 -7.9 2.8 -4 5.1 -8.4 5.2 -9.7 0.5 -5.2 -0.1 -8 -1.8 -8.6 -1 -0.3 -2.6 -1.3 -3.7 -2.2 -2.6 -2.3 -13.6 -2.2 -16 0.2 -1 0.9 -2.1 1.7 -2.5 1.7 -0.3 0 -1.5 1.4 -2.4 3 -2 3.4 -4.8 3.9 -9.3 1.5 -1.6 -0.8 -4.7 -1.5 -6.9 -1.5 -3.7 0.1 -4.1 0.3 -5.8 4.3 -4.4 9.8 -3.7 9.2 -9.9 9.4 -3.9 0.1 -5.8 -0.2 -5.8 -1 -0.1 -0.7 -1 -2.3 -2.1 -3.7 -1.9 -2.2 -2.9 -2.5 -8.8 -2.5 -10.7 0.1 -25.5 1.1 -27.3 1.9 -0.9 0.4 -2.2 0.5 -2.7 0.1 -0.6 -0.3 -2.4 0.4 -4 1.6 -1.6 1.2 -4.5 2.2 -6.5 2.2 -2 0.1 -3.6 0.5 -3.6 1 0 0.5 -1.2 0.7 -2.6 0.4 -2.2 -0.4 -3.5 0.4 -7.4 4.3 -4.6 4.9 -4.6 4.9 -16.8 4.6 -7.8 -0.2 -12.7 -0.8 -13.7 -1.6 -2.3 -1.9 -8.6 -0.3 -12.2 3.3 -3.5 3.3 -4 3.5 -12.3 4.2 -3 0.2 -8.2 1.1 -11.4 1.9 -3.4 0.8 -6.8 1.1 -8 0.6 -1.3 -0.5 -3.2 -0.2 -5 0.7 -1.6 0.8 -4 1.3 -5.5 1 -2 -0.4 -3.2 0.2 -5.1 2.4 -2.2 2.7 -3.1 3 -8 3 -9.8 0.1 -15.8 1.7 -18.2 5 -1.3 1.7 -2.8 2.7 -3.6 2.4 -0.7 -0.3 -2.3 0 -3.5 0.7 -1.2 0.6 -3 1.2 -4 1.3 -1.1 0.1 -2.2 0.7 -2.6 1.4 -0.8 1.2 -6.7 0.5 -7.7 -1 -0.5 -0.9 -6.7 2.2 -9.6 4.8 -1.5 1.4 -2 1.3 -4.6 -0.6 -1.6 -1.1 -3.1 -1.8 -3.4 -1.6 -0.3 0.3 -0.1 2.8 0.5 5.6 1 4.8 0.9 5.3 -1.4 7 -1.4 1.1 -4.1 1.9 -6.5 1.9 -4 0 -4.2 -0.1 -5 -3.7 -0.4 -2.1 -0.7 -4.1 -0.6 -4.5 0.1 -0.4 -0.9 -1.5 -2.2 -2.4 -2.8 -1.8 -4.7 -1.1 -8.4 2.9 -2 2.1 -2.8 2.4 -6 1.6 -2.7 -0.6 -4.3 -0.4 -5.9 0.6 -1.2 0.8 -3 1.5 -4 1.5 -1 0 -2.9 0.9 -4.3 2 -1.4 1.1 -3.3 2 -4.2 2 -0.9 0 -2 0.5 -2.4 1.1 -0.4 0.6 -2 0.8 -4 0.4 -2.1 -0.3 -3.4 -0.2 -3.4 0.5 0 0.5 -0.7 1 -1.6 1 -0.9 0 -1.8 0.9 -2.1 2 -0.6 2.2 -1.4 2.5 -2.8 1.1 -0.6 -0.5 -3.6 -0.5 -7.5 0.1 -4 0.6 -7 0.7 -8 0.1 -0.8 -0.6 -3.5 -1 -5.9 -1.1 -4.1 -0.2 -4.7 0.2 -10 5.7 -9 9.3 -11.8 10.1 -14.7 4.1 -2 -4.3 -3.4 -4.9 -5.4 -2.5 -0.7 0.8 -1.6 1.5 -2.1 1.5 -0.5 0 -1.8 0.9 -2.9 2 -1.1 1.1 -2.9 2 -4 2 -1.2 0 -2 0.7 -2 1.8 0 2 -3.6 3.7 -10 4.7 -2.4 0.4 -5.6 1.6 -7.1 2.7 -2.1 1.6 -3.4 1.8 -6 1.2 -1.9 -0.4 -3.7 -0.8 -4.1 -0.8 -0.3 -0.1 -1 -0.4 -1.3 -0.8 -0.9 -0.9 -6.5 1.9 -6.5 3.2 0 0.9 -2.7 2.6 -8.7 5.4 -1.7 0.9 -3.4 2 -3.8 2.6 -0.3 0.5 -2.2 1.7 -4.2 2.7 -3.9 1.8 -12.3 9.5 -12.3 11.2 0 0.6 -1 1.1 -2.3 1.1 -1.3 0 -3.2 0.6 -4.3 1.4 -1.6 1.3 -2.1 1.2 -3.6 -0.1 -1.5 -1.4 -1.9 -1.3 -4 1.2 -2.2 2.4 -3 2.7 -10.7 2.9 -6.4 0.3 -8.7 0.7 -9.6 2 -0.7 0.9 -2.1 1.6 -3.2 1.6 -1.1 0 -3.1 0.8 -4.4 1.9 -1.3 1 -3.4 2.1 -4.6 2.5 -1.2 0.4 -2.5 1.6 -2.8 2.6 -0.3 1.1 -1.9 2.9 -3.5 4 -2.4 1.7 -3.3 1.9 -5 1 -2.4 -1.3 -12 0.6 -12 2.4 0 2.4 -3.2 4.4 -6.3 3.9 -3.1 -0.4 -3.3 -0.2 -6.2 6.1 -2.9 6.2 -3.2 6.5 -6.5 6.5 -5 -0.1 -9.7 1.1 -11.1 2.7 -0.6 0.8 -1.8 1.4 -2.5 1.4 -0.8 0 -1.4 0.4 -1.4 0.9 0 0.5 -1.2 1.4 -2.7 2 -1.6 0.7 -3.5 2.6 -4.3 4.4 -0.9 2 -2.4 3.3 -3.8 3.5 -1.2 0.2 -2.7 1.2 -3.3 2.4 -1.7 3.2 -5.2 6.8 -6.5 6.8 -0.7 0 -1.7 0.8 -2.3 1.8 -0.8 1.5 -1.3 1.5 -3.1 0.4 -2.4 -1.5 -6 -0.7 -6 1.3 0 0.8 -0.7 1.1 -1.9 0.8 -1.1 -0.3 -2.4 0.3 -3.2 1.5 -1.9 2.6 -6 3.4 -9.9 2 -2.9 -1 -3.4 -0.9 -4.9 1.1 -1.8 2.4 -3 1.8 -4.4 -2 -0.6 -1.8 -5.7 -1.5 -5.7 0.3 0 0.6 -1.4 0.8 -3.6 0.3 -2.6 -0.4 -4.1 -0.2 -5.3 0.9 -0.9 0.8 -3.1 1.6 -4.8 1.8 -2.8 0.2 -3.5 0.9 -6.2 6.3 -1.6 3.4 -4.1 6.9 -5.4 7.8 -3.1 2 -13.5 2 -16 -0.1 -1.5 -1.4 -1.9 -1.3 -4 0.5 -1.7 1.6 -2.8 1.9 -5.2 1.2 -3.7 -1 -7.5 1.2 -7.5 4.4 -0.1 1.2 -1.9 4.2 -4 6.6 -3.8 4.2 -4.1 4.3 -6.3 2.8 -1.5 -0.9 -2.9 -1.2 -3.7 -0.7 -0.8 0.5 -2.5 0.3 -4.1 -0.6 -3.3 -1.7 -8.5 -1.9 -9.5 -0.3 -0.3 0.6 -1.6 0.8 -2.8 0.5 -1.5 -0.4 -3 0.1 -4.4 1.4 -2.7 2.5 -3.4 2.5 -5 0 -0.7 -1.1 -2.1 -2 -3.1 -2 -2.6 0 -4.1 -2.2 -3.4 -4.8 0.4 -1.7 0.1 -2.2 -1.4 -2.2 -1.1 0 -2.9 -1.3 -4.1 -3 -1.5 -1.9 -3.1 -3 -4.7 -3 -1.4 0 -3.4 -0.9 -4.5 -2 -2.7 -2.7 -3.3 -2.6 -7.1 1.5 -1.9 1.9 -4.1 3.5 -5.1 3.5 -1 0 -2 1 -2.4 2.5 -0.3 1.4 -1.2 2.5 -1.9 2.5 -1.8 0 -7.7 -3 -10.1 -5.2 -1.9 -1.7 -2.3 -1.7 -4.9 -0.4 -4.1 2.1 -5.6 1.1 -5 -3.3 0.5 -3.4 0.3 -3.8 -3.9 -6.4 -4.5 -2.8 -4.6 -2.8 -7 -1 -1.3 1 -3.2 3 -4.3 4.5 -2.1 3.2 -3.2 3.5 -3.5 1.1 0 -1 -0.2 -2.4 -0.2 -3.1 -0.2 -2.4 -3.6 -3.5 -5.5 -1.8 -2.2 2 -8.5 1.1 -12.3 -1.7 -3 -2.2 -4.3 -5.4 -5.3 -13.2 -0.9 -6.3 -2.2 -7.2 -5.7 -3.7 -4.7 4.8 -8.5 7.3 -9.1 5.9 -0.5 -1.3 -5.4 -3.9 -10.2 -5.3 -2 -0.6 -3.1 -1.7 -3.3 -3.2 -0.2 -1.4 -2.3 -3.7 -5.1 -5.7 -4.9 -3.6 -11.1 -10.5 -11.1 -12.6 0 -1.8 -5 -12.1 -6.7 -13.9 -3.7 -3.8 -9.3 -16 -9.3 -20.1 0 -0.9 1.6 -3.3 3.5 -5.2 3.3 -3.3 3.4 -3.6 3.1 -10.3 -0.1 -3.8 0.2 -7.7 0.8 -8.6 1.1 -1.9 -0.7 -4.8 -3 -4.8 -0.7 0 -2.1 -1.1 -3 -2.5 -0.9 -1.4 -2.3 -2.5 -3 -2.5 -0.8 0 -2.3 -1.5 -3.4 -3.2 -1.7 -2.7 -1.9 -4.3 -1.4 -8.8 0.3 -3 1 -5.9 1.5 -6.5 1.7 -1.7 0.9 -3.3 -2.7 -5.6 -3.1 -1.9 -3.5 -2.6 -2.9 -4.8 1.9 -7.8 1.9 -8.1 -0.9 -8.1 -1.4 0 -2.6 -0.5 -2.6 -1.1 0 -0.7 -0.7 -1.7 -1.5 -2.3 -1.3 -1 -1.3 -2.2 0.1 -11.1 2 -12.3 3.6 -16.5 6.3 -16.5 2.9 0 9 -3.2 9.6 -5.2 0.3 -0.9 1.7 -2.3 3 -3.2 1.7 -1.1 2.5 -2.6 2.5 -4.4 0 -2 0.9 -3.5 3 -5 3.1 -2.4 5 -2.8 5 -1.2 0 1.7 2.6 1.1 4.5 -1 1 -1.1 2.3 -2 3 -2 0.6 0 2.4 -1.8 4.1 -4 3.1 -4.2 4.5 -4.8 6.3 -2.6 1.2 1.4 14 2.2 18.4 1.1 1.4 -0.4 3.2 -2.5 4.8 -5.8 3 -6.1 5.2 -6.9 8.6 -3.3 2.4 2.6 6.3 3.5 6.3 1.5 0 -0.7 1.4 -0.8 3.9 -0.4 3.3 0.5 4.1 0.3 5 -1.3 1.4 -2.6 6.9 -3.7 9.1 -1.7 0.9 0.8 3.3 1.5 5.3 1.5 2 0 3.7 0.5 3.7 1 0 0.6 1.5 1 3.4 1 1.9 0 3.7 0.4 4 0.9 0.3 0.5 1.9 1.1 3.6 1.3 2.2 0.3 3.8 -0.3 6.4 -2.4 1.9 -1.6 3.7 -2.4 4 -1.9 0.9 1.4 5.8 2 7.6 0.9 1.2 -0.8 2.5 -0.6 4.6 0.4 1.6 0.9 3.9 1.4 5.2 1.2 1.3 -0.2 3.1 0 4.1 0.6 1.2 0.6 3 0.6 5.1 0 2.1 -0.6 3.8 -0.6 4.5 0 1.9 1.6 18.6 2.3 21.2 0.9 2 -1.1 2.8 -0.9 5.1 0.7 1.5 1.1 3.5 2.3 4.5 2.7 0.9 0.3 1.7 1.1 1.7 1.7 0 1.9 3.9 1 4.5 -1.1 0.5 -1.5 1 -1.8 1.8 -1 0.6 0.6 2.1 1.1 3.3 1.1 1.2 0 2.4 0.7 2.8 1.5 0.4 1.3 2.3 1.4 10.9 1 11.3 -0.5 15.7 -1.6 15.7 -4 0 -0.9 0.9 -1.5 2.5 -1.5 1.4 0 2.5 0.5 2.5 1.1 0 0.7 0.9 0.5 2.2 -0.5 1.3 -0.9 3 -1.9 3.8 -2.3 0.8 -0.3 2.8 -1.5 4.3 -2.6 2.6 -1.8 2.9 -1.8 4.6 -0.3 1 0.9 2 1.4 2.3 1.1 0.3 -0.3 2.9 -0.9 5.7 -1.4 5 -0.8 5.2 -0.7 7.6 2.3 1.4 1.7 3 3.6 3.5 4.3 1.5 1.8 3.7 0.6 6.1 -3.3 1.7 -2.7 2.5 -3.3 4.4 -2.8 1.7 0.4 2.6 0 3.4 -1.4 0.6 -1.1 0.8 -2.2 0.4 -2.5 -0.3 -0.4 0 -1.3 0.7 -2.2 1.7 -2 4 -0.2 4 3.2 0 2.2 0.3 2.5 2.7 2 1.5 -0.3 3.6 -0.1 4.6 0.5 3.2 1.7 6.2 0.1 8.1 -4.2 0.9 -2.2 2.1 -4 2.6 -4 0.5 0 1.9 1.3 3.1 3 3.2 4.3 5 4.6 7.6 1.4 1.8 -2.2 3 -2.8 6 -2.7 6.8 0.3 10.2 -0.7 14.8 -4.3 4.6 -3.5 4.6 -3.5 7.3 -1.6 3.2 2.2 9.8 3.7 10.6 2.3 0.3 -0.5 3.8 -0.9 7.6 -0.8 5.8 0.1 7.2 -0.2 8.4 -1.8 0.8 -1.1 1.8 -1.7 2.2 -1.2 0.4 0.4 1.7 -0.1 2.8 -1.2 1.2 -1 4.3 -2.1 7 -2.5 4.2 -0.5 5.3 -0.3 7.2 1.5 2.3 2.1 2.3 2.1 7.5 -0.5 2.9 -1.4 6.4 -2.6 7.7 -2.6 1.4 0 3.2 -1.1 4.3 -2.5 1.1 -1.3 2.6 -2.2 3.3 -1.9 0.9 0.3 2 -0.6 2.8 -2.3 1.6 -3.3 7.4 -4.6 8.4 -1.9 0.9 2.2 4 2 6.3 -0.5 1.9 -2 1.9 -2 2.5 -0.1 1.3 4.1 12.2 3.7 14.9 -0.5 0.4 -0.7 1.4 -1.3 2.2 -1.3 0.7 0 2 -0.6 2.7 -1.3 1.5 -1.5 4.9 -3.1 6.2 -2.8 0.4 0.1 1.4 -0.3 2.2 -1 0.9 -0.8 3.5 -0.9 8.1 -0.4 11.1 1.2 17.5 0.7 20.5 -1.5 2.5 -1.9 2.7 -1.9 5 -0.1 4.3 3.4 6.7 3.5 8.9 0.7 1.7 -2.2 2.8 -2.6 7.4 -2.6 3 0 5.7 -0.4 6 -1 1 -1.7 3.3 -1.1 4 0.9 0.5 1.8 1.5 1.9 13.9 1.7 10.4 -0.2 13.9 -0.6 15.9 -1.8 1.4 -1 2.8 -1.3 3.3 -0.8 0.5 0.5 4.5 1 9 1.2 6.5 0.2 8.4 0 9.7 -1.4 1.2 -1.2 2.8 -1.6 5.3 -1.2 2 0.2 5.3 0 7.3 -0.6 2 -0.5 8.4 -1.1 14.3 -1.3 9.6 -0.4 11.2 -0.7 14.8 -3.1 4.7 -3.1 4.3 -3 8.7 -1 3.3 1.6 3.5 1.6 6.3 -0.5 2 -1.4 4.4 -2.1 7.4 -2.1 2.5 0 4.6 -0.5 4.8 -1.2 0.3 -0.9 1.6 -0.8 5.1 0.2 4.2 1.1 5 1.1 6.5 -0.4 1.3 -1.1 2.1 -1.3 2.9 -0.5 0.7 0.7 2.8 0.5 6.9 -0.6 3.3 -0.9 6.8 -1.7 7.8 -1.8 1.1 -0.1 3.2 -1.4 4.7 -3 1.7 -1.7 2.9 -2.3 3.1 -1.6 0.2 0.7 2.2 1.7 4.4 2.4 3.6 1 4.3 1 6.3 -0.6 2.1 -1.7 2.5 -1.7 4.4 -0.4 3.9 2.7 9.3 1.3 13.8 -3.7 1.7 -1.9 4.9 -2.4 4.9 -0.9 0 2.3 3.9 2.1 6.5 -0.3 1.7 -1.6 3.7 -2.4 5.8 -2.4 9.3 0.3 17.7 -1.4 21.8 -4.4 1.5 -1.1 3.2 -1.7 3.8 -1.3 0.7 0.4 1.9 0.1 2.8 -0.7 0.9 -0.7 4.7 -1.4 9.2 -1.5 15.2 -0.5 21.7 -1.1 24.6 -2.2 2.4 -1 3.1 -1 4.1 0.3 1.6 2.2 2.9 2 4.6 -0.6 1.3 -1.9 2.5 -2.3 7.4 -2.4 3.9 -0.1 7.2 -0.9 9.8 -2.2 2.1 -1.2 4.3 -1.9 4.8 -1.6 0.6 0.4 2.8 -1.1 4.9 -3.2 3.3 -3.2 4.7 -3.9 8.1 -4 2.6 0 4.5 -0.6 5.3 -1.7 0.7 -1 1.9 -1.5 2.9 -1.1 1.2 0.5 2 -0.3 3.1 -3 0.8 -2 2.2 -3.6 3 -3.6 0.9 0 1.8 -0.7 2.1 -1.5 0.9 -2.3 6.3 -4.5 11.3 -4.5 5 0 11.1 -3.3 13.2 -7.1 0.6 -1.3 1.6 -1.8 2.6 -1.5 1.8 0.7 13.3 -2.3 13.3 -3.4 0 -0.5 1.6 -0.8 3.6 -0.8 1.9 0 4.3 -0.6 5.2 -1.4 2.9 -2.5 17.3 -7 20.6 -6.5 3.9 0.5 9.1 -1.9 10.5 -4.9 0.6 -1.4 1.9 -2.4 3.1 -2.4 1.1 0 3.8 -1.6 6 -3.6 3.3 -3 4.4 -3.5 6.9 -2.9 1.6 0.3 4.8 0.1 7.2 -0.5 3.6 -1 4.7 -0.9 7.6 0.7 2.7 1.4 3.7 1.5 5.3 0.5 2.5 -1.5 6.2 -1.6 7.8 0 0.9 0.9 5.5 1.5 13.9 1.8 0.6 0 1.5 1 1.8 2.3 1.2 3.9 3.4 8.4 4.9 9.6 1.3 1.1 4.9 1.9 16.6 3.7 6.5 0.9 11 2.7 11.5 4.5 0.5 1.6 1.6 1.8 9.8 1.3 8.9 -0.5 14.7 0.6 14.7 2.8 0 0.6 1.4 2.3 3.1 3.9 2.8 2.6 3 3.2 2.4 7 -0.5 3.1 -1.8 5.2 -4.9 8.1 -3.9 3.7 -4 3.9 -2.2 5.3 1.4 1 2.3 1.2 3.2 0.4 0.7 -0.6 3 -0.7 6 -0.2 5 0.9 4.9 0.6 6.1 8.8 0.4 3 1.7 5.1 5.1 8.3 4.2 4.1 4.4 4.6 3.9 8.5 -0.4 3.2 0 5.3 1.8 8.8 1.2 2.5 2.6 6.1 3 7.8 0.5 2.5 1.3 3.3 3.7 3.8 1.6 0.3 3.2 1.2 3.5 1.9 0.3 0.8 1.1 1.4 1.9 1.4 2.1 0 4.6 6.9 3.8 10.5 -2.2 9.7 -2.1 22.6 0.1 24.9 2 2 1.9 5.6 -0.2 7.2 -1.4 1 -1.6 1.7 -0.8 3.1 1.2 2 1.2 8.3 0 12.6 -0.6 2.3 -0.4 2.9 1.3 3.3 2.6 0.7 4 4.1 3.4 8.2 -0.2 1.9 0.1 4.4 0.8 5.7 1.1 2.1 1 3.2 -0.6 7.2 -1 2.6 -2 6.8 -2.1 9.3 -0.2 2.5 -0.9 6.3 -1.5 8.5 -0.7 2.2 -1.3 4.5 -1.4 5 -0.4 3.4 -1.9 7.3 -3.4 9 -1.8 2.1 -3.8 5.5 -6.5 11.5 -1 2.3 -2.9 4.1 -5.4 5.3 -2.2 1 -4.1 2.7 -4.4 3.9 -0.5 1.9 -1.1 2 -6.1 1.4 -5.9 -0.7 -10 -2.1 -12.9 -4.5 -1.4 -1.1 -2.2 -1.2 -4.3 -0.3 -3.3 1.6 -3.1 1.7 -6.8 -2.4 -3 -3.3 -3.9 -3.7 -9 -3.9 -3.1 -0.1 -5.9 0.2 -6.2 0.7 -0.3 0.4 -1.4 0.8 -2.4 0.8 -1 0 -2.3 0.6 -2.7 1.3 -1 1.7 -6.9 4.1 -8.2 3.3 -0.5 -0.3 -2.5 1.2 -4.4 3.4 -3.3 3.8 -3.5 4 -6.8 2.9 -1.9 -0.6 -4.3 -1.5 -5.5 -2.1 -3.1 -1.5 -12.9 1.4 -16 4.7 -1.4 1.5 -3.9 2.9 -5.7 3.1 -1.8 0.3 -4.7 1 -6.5 1.5 -2.6 0.9 -4 0.7 -6.7 -0.5 -3.3 -1.6 -3.7 -1.6 -8.2 0.5 -2.7 1.2 -7.1 3.6 -9.8 5.5 -2.8 1.8 -6.3 3.5 -7.8 3.8 -1.5 0.2 -3.3 1.1 -4.1 1.8 -3.5 3.3 -5.8 4.8 -8.3 5.4 -1.6 0.4 -4.6 1.7 -6.9 3 -2.2 1.3 -5 2.4 -6 2.4 -1.1 0 -3.7 1.6 -5.8 3.5 -2.1 1.9 -4.3 3.5 -4.8 3.5 -0.5 0 -2.7 1.7 -4.9 3.7 -2.2 2.1 -6.3 5 -9.2 6.6 -2.8 1.6 -5.8 3.4 -6.4 3.9 -0.7 0.6 -2.2 0.8 -3.3 0.5 -1.5 -0.4 -2 0 -2 1.3 0 1.9 -0.9 2.3 -7 3.5 -2 0.4 -4.8 2.1 -6.6 3.9 -1.7 1.8 -3.5 3.1 -4.1 2.9 -0.6 -0.2 -2.5 0.9 -4.1 2.5 -1.7 1.7 -4.8 3.5 -6.9 4.2 -2.1 0.7 -4.2 1.6 -4.7 2.1 -0.5 0.4 -1.9 0.1 -3.3 -0.8 -2.2 -1.4 -2.5 -1.4 -4.3 0.2 -1.3 1.2 -2.7 1.5 -4.4 1.1 -1.4 -0.3 -2.7 -0.2 -3 0.2 -0.8 1.3 -10.8 6 -15.2 7.1 -2.3 0.6 -5.2 1.9 -6.5 2.9 -1.3 1 -4.2 2.7 -6.4 3.7 -2.2 1 -5.6 2.9 -7.5 4.2 -1.9 1.2 -4.1 2.3 -4.8 2.3 -0.8 0 -3.1 1.2 -5.1 2.8 -6.3 4.8 -14.7 9.2 -17.4 9.2 -1 0 -2.8 0.9 -4 2.1 -1.2 1.1 -4.7 3.2 -7.7 4.6 -11.1 5.2 -20.8 10 -23 11.4 -0.8 0.5 -2.5 1.3 -3.7 1.9 -1.3 0.5 -2.3 1.4 -2.3 2 0 0.5 -0.9 1 -2 1 -2 0 -6 2.4 -10.5 6.1 -3.9 3.3 -11.3 6.8 -18.3 8.8 -3.9 1.1 -8.1 2.9 -9.4 4 -1.2 1.2 -2.4 2.1 -2.7 2.1 -8.1 0.7 -17.2 0.6 -17.7 -0.1z"/>
  <path d="M593 207.4 c-1.8 -5.2 -2.6 -5.9 -6.6 -6 -6.4 -0.1 -6.8 -0.3 -9 -3.7 -1.6 -2.5 -1.9 -4 -1.3 -6.7 0.5 -2.2 0.3 -4.3 -0.6 -6 -2.8 -5.2 -13.1 -10.9 -17.3 -9.5 -2.6 0.8 -4.9 -0.3 -5.5 -2.6 -0.3 -1 -1.6 -2.3 -3 -2.8 -1.4 -0.5 -4.3 -2.7 -6.5 -4.8 -9.4 -9.1 -9.9 -9.3 -17 -5.2 -1.8 1 -3.9 1.9 -4.7 1.9 -0.7 0 -2.6 1.1 -4.2 2.4 -1.5 1.2 -3.4 2.1 -4.1 1.8 -0.8 -0.2 -2.5 0.1 -3.8 0.9 -1.3 0.7 -2.7 0.9 -3.1 0.6 -0.3 -0.4 -3.4 0.8 -6.8 2.7 -4.1 2.2 -7.4 3.3 -10.2 3.3 -2.2 0 -5.5 0.8 -7.3 1.7 -1.8 0.9 -3.8 1.6 -4.5 1.6 -0.7 0 -2 0.9 -2.9 1.9 -1.1 1.2 -3 1.9 -4.9 1.8 -1.8 0 -4.9 1 -7.2 2.5 -5.4 3.4 -12.8 2.7 -14 -1.2 -0.3 -1.1 -1.6 -2.7 -2.9 -3.7 -1.8 -1.5 -2.2 -2.9 -2.4 -8.9 -0.3 -6.8 -0.1 -7.2 2.5 -8.9 1.5 -1 3.2 -2.4 3.6 -3.2 0.4 -0.7 1.2 -1.3 1.7 -1.3 1.3 0 9 -7.5 9 -8.7 0 -0.5 1.1 -1.5 2.5 -2.1 2.8 -1.3 8.5 -8.7 8.5 -11.1 0 -0.9 0.9 -2.4 2.1 -3.4 2 -1.8 1.9 -4.9 -0.3 -7.2 -0.8 -0.9 -7.6 -1 -23.1 -0.4 -3.2 0.1 -5.3 -0.3 -6.5 -1.5 -2.2 -1.9 -8.2 -2.1 -12.9 -0.4 -2.9 1.1 -3.5 1 -4.7 -0.7 -1.4 -1.9 -1.5 -1.9 -3.5 -0.1 -1.8 1.6 -2.6 1.7 -6.5 0.7 -5.7 -1.4 -5.6 -1.4 -5.6 0.4 0 1.2 -0.3 1.3 -1.9 0.3 -1.5 -0.9 -2.8 -0.9 -5.8 0 -3.6 1.1 -3.9 1 -6.4 -1.6 -1.4 -1.5 -3.2 -4.5 -4 -6.6 -1.4 -3.8 -6.7 -7.5 -8.9 -6.1 -0.6 0.4 -2.6 -0.5 -4.5 -1.9 -1.8 -1.4 -4.3 -2.6 -5.4 -2.6 -1.4 0 -2.1 -0.8 -2.3 -2.7 -0.2 -2.3 -0.9 -2.9 -3.8 -3.3 -3 -0.4 -3.6 -1 -4.6 -4.5 -1.9 -6.1 -1.7 -6.8 2.4 -9.5 2 -1.4 4 -2.9 4.4 -3.5 3.4 -5.2 9.7 -12.4 11.3 -13 1.1 -0.5 2.7 -1.1 3.6 -1.4 3.8 -1.4 9.8 -8.1 10.5 -11.6 0.3 -1.9 1.3 -3.9 2.2 -4.4 0.9 -0.5 2.5 -2.6 3.7 -4.7 1.4 -2.4 3.2 -4.1 5.3 -4.8 1.8 -0.7 3.6 -1.7 4 -2.3 0.4 -0.7 2.2 -1.8 4 -2.6 5.1 -2.1 16 -12.4 16.7 -15.9 0.7 -2.8 0.9 -2.9 4.1 -2.3 2.6 0.4 3.6 0.2 4 -1 0.3 -0.8 1.3 -1.5 2.2 -1.5 0.8 0 2.3 -0.7 3.3 -1.6 1.6 -1.4 2.1 -1.4 5.4 0.2 3.2 1.5 4.2 1.5 7.2 0.5 2.9 -1.1 3.7 -1.1 4.4 0 0.5 0.8 0.9 1.7 0.9 2.1 0 1 12.2 -0.2 13.6 -1.4 0.8 -0.6 2.8 1 6 4.9 2.7 3.2 5.7 6.4 6.7 7.1 0.9 0.7 1.7 2 1.7 2.8 0 0.8 0.9 1.4 1.9 1.4 1.1 0 2.3 0.5 2.6 1 0.9 1.5 3.8 1.2 6.5 -0.7 3.5 -2.4 11.8 -5.2 15.8 -5.3 2.6 0 3.4 0.5 4.2 2.5 0.5 1.4 1.6 2.5 2.5 2.5 0.8 0 1.5 0.4 1.5 0.9 0 1.6 6.1 7.2 7.1 6.5 0.5 -0.3 1.5 0.9 2.3 2.6 1.3 3.2 1.3 3.2 4.1 0.6 4.1 -3.8 6.5 -2.2 6.7 4.7 0 2.9 0.2 5.8 0.2 6.5 0.2 2.2 2.7 3 6 2.1 5.4 -1.6 8.1 -1.1 9.6 1.6 0.7 1.4 1.9 2.5 2.6 2.5 0.7 0 1.8 0.8 2.3 1.8 1.8 3.4 14.7 13.2 17.3 13.2 1.4 0 3.1 0.7 3.8 1.5 1.6 1.9 3 1.9 3 0 0 -2.3 3.1 -3.1 4.5 -1.2 0.6 0.9 2.4 2.1 3.8 2.6 1.5 0.6 3.1 2.1 3.6 3.4 1.1 2.8 2.7 4.1 6.9 5.5 1.8 0.6 4.1 2 5 3.1 0.9 1.1 3.7 2.6 6.2 3.4 3.4 1.1 4.6 2 4.8 3.8 0.2 1.3 0.8 2.8 1.3 3.4 0.5 0.5 0.9 1.7 0.9 2.7 0 1.8 3.7 8 5.3 8.6 0.4 0.2 0.7 0.9 0.7 1.6 0 0.7 1.1 3 2.5 5 2 3 2.4 4.4 1.9 7.7 -0.9 5.2 1.1 5.2 3.3 -0.1 1 -2.2 2.2 -3.9 2.8 -3.7 1.3 0.5 1.9 9.7 0.7 10.9 -1.5 1.5 -0.1 8.9 1.9 10.9 3.1 3.1 3.4 6.4 0.9 9.9 -1.6 2.2 -2.1 4 -1.6 6 0.4 2.3 0 3.3 -2.3 5.2 -1.5 1.3 -3.5 3.9 -4.4 5.8 -1.7 3.3 -1.7 3.4 0.9 7.3 2.4 3.6 2.7 7.6 0.4 6.2 -0.7 -0.4 -0.8 0.7 -0.4 3.3 0.4 2.5 0.2 4.2 -0.5 4.6 -0.6 0.4 -1.1 1.8 -1.1 3 0 1.4 -0.8 2.6 -1.7 3 -1 0.3 -2.4 0.9 -3 1.2 -0.8 0.3 -1.3 -0.1 -1.3 -1 0 -0.9 -0.6 -1.9 -1.4 -2.2 -2 -0.8 -8.6 6.4 -8.6 9.3 0 1.3 -0.6 2.3 -1.3 2.3 -1.9 0 -3.7 -2.1 -3.7 -4.2 0 -1 -0.5 -1.8 -1.1 -1.8 -2.7 0 -8.1 3.5 -9.5 6.1 -1.7 3.5 -3 3.6 -5.4 0.7 -1.7 -2.2 -1.7 -2.2 -4.3 0.6 -2.7 2.8 -2.7 2.8 -3.7 0z"/>
 </g>
</svg>